<?xml version="1.0" encoding="UTF-8"?>
<!-- Generator: Adobe Illustrator 21.1.0, SVG Export Plug-In . SVG Version: 6.00 Build 0)  -->
<svg version="1.2" baseProfile="tiny" id="Primer_plano" xmlns="http://www.w3.org/2000/svg" xmlns:xlink="http://www.w3.org/1999/xlink" x="0px" y="0px" viewBox="0 0 716.7 211.8" xml:space="preserve">
<g>
	<path fill="#000E78" d="M399.7,117.3c-4.1,4.3-10.1,7.2-16.5,7.2c-12.3,0-22.2-9.9-22.2-22.2s9.9-22.2,22.2-22.2   c6.5,0,12.4,2.8,16.4,7.2l0.1-17.5c-4.9-2.5-10.5-3.9-16.4-3.9c-20.1,0-36.4,16.3-36.4,36.4c0,20.1,16.3,36.4,36.4,36.4   c5.9,0,11.5-1.4,16.4-3.9L399.7,117.3z"/>
	<path fill-rule="evenodd" fill="#000E78" d="M448.7,135c-4,2.5-8.8,3.9-13.9,3.9c-14.4,0-26.1-11.7-26.1-26.1s11.7-26.1,26.1-26.1   c5.1,0,9.9,1.5,13.9,4v-4H461v52.3h-12.3V135z M420.9,112.8c0-7.7,6.2-14,14-14c7.7,0,14,6.2,14,14c0,7.7-6.2,14-14,14   C427.2,126.7,420.9,120.5,420.9,112.8z"/>
	<path fill="#000E78" d="M497.4,100.8c-1.2-0.7-2.7-1.1-4.2-1.1c-4.7,0-8.6,3.8-8.6,8.6v30.6h-13.2l0.1-52.4h13.1l0.1,3.2   c3.1-2,6.8-3.2,10.7-3.2h0.1c0.6,0,1.3,0,2,0.1V100.8z"/>
	<path fill-rule="evenodd" fill="#000E78" d="M525.6,112.8c0-14.5,11.7-26.2,26.2-26.2c14.5,0,26.2,11.7,26.2,26.2   s-11.7,26.2-26.2,26.2C537.3,138.9,525.6,127.2,525.6,112.8z M537.8,112.8c0-7.7,6.2-14,14-14c7.7,0,14,6.2,14,14s-6.2,14-14,14   C544,126.7,537.8,120.5,537.8,112.8z"/>
	<path fill="#000E78" d="M611.1,100l7-7.1c-3.9-3.9-9.3-6.3-15.3-6.3c-2.1,0-4.2,0.3-6.1,0.9c-7.1,2.2-12.4,8.7-12.4,16.5   c0,0.5,0,1,0.1,1.6c0.6,4.4,3.9,7.9,7.9,9.3l12.1,4.6c1.9,0.8,2.6,2.1,2.6,3.9c0,3.7-4.3,4.8-7.3,4.8c-4.6,0-8.7-2.1-11.3-5.6   l-6.9,6.8c4.4,5.7,11.2,9.4,19,9.4c4.7,0,9-1.3,12.6-3.6c4.3-2.8,7.1-7.6,7.1-13c0-6.4-3.8-11.9-9.4-14.2l-9.1-3.4   c-1.8-0.6-3.1-1.9-3.1-3.9c0-2.3,1.9-4.3,4.2-4.3C606,96.5,608.9,97.9,611.1,100z"/>
	<rect x="505.3" y="66.1" fill-rule="evenodd" fill="#000E78" width="13.1" height="72.9"/>
	<rect x="290.7" y="-0.1" fill-rule="evenodd" fill="#000E78" width="6.7" height="211.4"/>
	<g>
		<path fill="#000E78" d="M90.7,103.8c-3-2.9-7-4.6-11.4-4.6c-7.3,0-13.2,5.9-13.2,13.2s5.9,13.2,13.2,13.2c4.5,0,8.5-1.8,11.4-4.7    v15.2c-3.5,1.7-7.4,2.6-11.4,2.6c-14.6,0-26.4-11.8-26.4-26.4S64.7,86,79.2,86c4.1,0,8,0.9,11.4,2.6V103.8z"/>
		<path fill-rule="evenodd" fill="#000E78" d="M33,85.8v29.8c0,5.5-4.4,9.9-9.9,9.9c-5.5,0-9.9-4.4-9.9-9.9V85.8H0v29.8    c0,12.8,10.3,23.1,23.1,23.1c12.8,0,23.1-10.3,23.1-23.1V85.8H33z"/>
		<path fill-rule="evenodd" fill="#000E78" d="M123.7,79.3l-7.6,19.8l9.2,0l-0.2,0c7.3,0,13.2,5.9,13.2,13.2    c0,7.3-5.9,13.2-13.2,13.2c-7.3,0-13.2-5.9-13.2-13.2l-13.1,0c0,14.6,11.8,26.3,26.4,26.3s26.4-11.8,26.4-26.4    c0-11.3-7-20.9-17-24.6l8.4-21.8l-40.8,0.1v13.2L123.7,79.3z"/>
		<path fill-rule="evenodd" fill="#000E78" d="M202.7,93.5c-3.9-4.7-9.8-7.7-16.4-7.7c-4.3,0-8.3,1.3-11.7,3.5l0-3.5h-13.2v52.8    h13.2l0.1-29.8c0-5.5,4.4-9.9,9.9-9.9c5.5,0,9.9,4.5,9.9,9.9v29.7h13.2l0-29.8c0-5.5,4.4-9.9,9.9-9.9c5.5,0,9.9,4.4,9.9,9.9    l0,29.8h13.2l0-31.5c0-11.8-9.6-21.4-21.5-21.4C212.6,85.9,206.7,88.8,202.7,93.5z"/>
	</g>
	<g>
		<rect x="643.8" y="65.9" fill-rule="evenodd" fill="#000E78" width="15.9" height="72.9"/>
		<rect x="700.8" y="65.9" fill-rule="evenodd" fill="#000E78" width="15.9" height="72.9"/>
		<rect x="672.3" y="65.9" fill-rule="evenodd" fill="#000E78" width="15.9" height="72.9"/>
	</g>
	<g>
		<path fill-rule="evenodd" fill="#000E78" d="M346.7,32.4l0-32.4h5.4l0,32.4c0,8.3,6.8,15.1,15.1,15.1c8.3,0,15.3-6.8,15.3-15.1    L382.4,0h5.4l0,32.4c0,11.3-9.2,20.5-20.6,20.5C355.9,52.9,346.7,43.8,346.7,32.4z"/>
	</g>
	<g>
		<path fill-rule="evenodd" fill="#000E78" d="M400.6,30.1c0-5.5,4.4-10,9.9-10c5.5,0,10,4.5,10,10l0,22.9h5.4l0-23.3    c0-8.3-6.8-15-15.1-15c-4,0-7.7,1.7-10.4,4.3v-4.3h-5.4v38.3h5.4L400.6,30.1z"/>
	</g>
	<path fill-rule="evenodd" fill="#000E78" d="M431.9,14.5h5.4v38.4h-5.4V14.5z M431,3.6c0-2,1.6-3.6,3.6-3.6c2,0,3.6,1.6,3.6,3.6   c0,2-1.6,3.6-3.6,3.6C432.7,7.3,431,5.6,431,3.6z"/>
	<g>
		<polygon fill-rule="evenodd" fill="#000E78" points="461.3,52.9 442.3,14.1 448.4,14.1 461.2,40.6 473.8,14.1 479.9,14.1   "/>
	</g>
	<path fill-rule="evenodd" fill="#000E78" d="M510.2,43.6c-2.5,2.4-5.9,3.9-9.6,3.9c-6.7,0-12.3-4.8-13.5-11.1l32.6,0   c0.1-0.9,0.2-1.8,0.2-2.7c0-10.6-8.6-19.3-19.3-19.3c-10.6,0-19.3,8.6-19.3,19.3s8.6,19.3,19.3,19.3c5.3,0,10.1-2.1,13.6-5.5   L510.2,43.6z M487.1,31c1.3-6.3,6.8-11.1,13.5-11.1c6.7,0,12.2,4.7,13.5,11L487.1,31z"/>
	<g>
		<path fill-rule="evenodd" fill="#000E78" d="M544.9,15c-1-0.2-2.1-0.4-3.2-0.4c-4,0-7.7,1.7-10.4,4.3v-4.3h-5.4v38.3h5.4l0-22.9    c0-5.5,4.4-10,9.9-10c1.3,0,2.6,0.2,3.7,0.7V15z"/>
	</g>
	<path fill-rule="evenodd" fill="#000E78" d="M666.7,47.1c-3.5,3.6-8.5,5.9-13.9,5.9c-10.6,0-19.3-8.6-19.3-19.3s8.6-19.3,19.3-19.3   c5.5,0,10.4,2.3,13.9,5.9v-5.9h5.5v38.2h-5.5V47.1z M638.9,33.7c0-7.6,6.2-13.8,13.8-13.8c7.6,0,13.8,6.2,13.8,13.8   c0,7.6-6.2,13.8-13.8,13.8C645.1,47.5,638.9,41.3,638.9,33.7z"/>
	<path fill-rule="evenodd" fill="#000E78" d="M578.5,14.5h5.4v38.4h-5.4V14.5z M577.6,3.6c0-2,1.6-3.6,3.6-3.6c2,0,3.6,1.6,3.6,3.6   c0,2-1.6,3.6-3.6,3.6C579.2,7.3,577.6,5.6,577.6,3.6z"/>
	<path fill-rule="evenodd" fill="#000E78" d="M710.6,47.1c-3.5,3.6-8.5,5.9-13.9,5.9c-10.6,0-19.3-8.6-19.3-19.3s8.6-19.3,19.3-19.3   c5.5,0,10.4,2.3,13.9,5.9V-0.2h5.5v52.8h-5.5V47.1z M682.9,33.7c0-7.6,6.2-13.8,13.8-13.8c7.6,0,13.8,6.2,13.8,13.8   c0,7.6-6.2,13.8-13.8,13.8C689.1,47.5,682.9,41.3,682.9,33.7z"/>
	<path fill-rule="evenodd" fill="#000E78" d="M622.7,47.1c-3.5,3.6-8.5,5.9-13.9,5.9c-10.6,0-19.3-8.6-19.3-19.3s8.6-19.3,19.3-19.3   c5.5,0,10.4,2.3,13.9,5.9V-0.2h5.5v52.8h-5.5V47.1z M595,33.7c0-7.6,6.2-13.8,13.8-13.8c7.6,0,13.8,6.2,13.8,13.8   c0,7.6-6.2,13.8-13.8,13.8C601.2,47.5,595,41.3,595,33.7z"/>
	<g>
		<path fill-rule="evenodd" fill="#000E78" d="M555.4,24.2c-0.2-2.6,2-4.5,4.5-4.5c3.1,0.1,5.3,1.8,6.4,4.1l4.4-2.5    c-2.3-4.5-6-6.9-10.4-6.9c-5.8,0-10.5,4.1-10.7,9.9c0,5,3,7,7,9.2l7.8,4.2c1.9,1.3,2.7,2.3,2.7,4.6c-0.1,2.7-2.7,5.3-6.1,5.3    c-3.9,0-6.4-2.2-8.1-5.4l-5,2.5c2,5.5,7.2,8.4,12.5,8.4c6.6,0,12.3-4.9,12.5-11.6c0-5.7-4.1-8.3-8.3-10.4    C560.2,28.5,555.5,26.7,555.4,24.2z"/>
	</g>
	<path fill-rule="evenodd" fill="#000E78" d="M379.9,205.6c-3.5,3.6-8.5,5.9-13.9,5.9c-10.6,0-19.3-8.6-19.3-19.3   s8.6-19.3,19.3-19.3c5.5,0,10.4,2.3,13.9,5.9v-20.5h5.5v52.8h-5.5V205.6z M352.1,192.3c0-7.6,6.2-13.8,13.8-13.8   c7.6,0,13.8,6.2,13.8,13.8c0,7.6-6.2,13.8-13.8,13.8C358.3,206.1,352.1,199.9,352.1,192.3z"/>
	<path fill-rule="evenodd" fill="#000E78" d="M423,202.2c-2.5,2.4-5.9,3.9-9.6,3.9c-6.7,0-12.3-4.8-13.5-11.1l32.6,0   c0.1-0.9,0.2-1.8,0.2-2.7c0-10.6-8.6-19.3-19.3-19.3c-10.6,0-19.3,8.6-19.3,19.3s8.6,19.3,19.3,19.3c5.3,0,10.1-2.1,13.6-5.5   L423,202.2z M399.8,189.5c1.3-6.3,6.8-11.1,13.5-11.1c6.7,0,12.2,4.7,13.5,11L399.8,189.5z"/>
	<path fill-rule="evenodd" fill="#000E78" d="M569.2,205.6c-3.5,3.6-8.5,5.9-13.9,5.9c-10.6,0-19.3-8.6-19.3-19.3   s8.6-19.3,19.3-19.3c5.5,0,10.4,2.3,13.9,5.9V173h5.5v38.2h-5.5V205.6z M541.5,192.3c0-7.6,6.2-13.8,13.8-13.8   c7.6,0,13.8,6.2,13.8,13.8c0,7.6-6.2,13.8-13.8,13.8C547.6,206.1,541.5,199.9,541.5,192.3z"/>
	<path fill-rule="evenodd" fill="#000E78" d="M616.6,205.6c-3.5,3.6-8.5,5.9-13.9,5.9c-10.6,0-19.3-8.6-19.3-19.3S592,173,602.6,173   c5.5,0,10.4,2.3,13.9,5.9v-20.5h5.5v52.8h-5.5V205.6z M588.8,192.3c0-7.6,6.2-13.8,13.8-13.8c7.6,0,13.8,6.2,13.8,13.8   c0,7.6-6.2,13.8-13.8,13.8C595,206.1,588.8,199.9,588.8,192.3z"/>
	<g>
		<path fill-rule="evenodd" fill="#000E78" d="M652.7,173.6c-1-0.2-2.1-0.4-3.2-0.4c-4,0-7.7,1.7-10.4,4.3v-4.3h-5.4v38.3h5.4    l0-22.9c0-5.5,4.4-10,9.9-10c1.3,0,2.6,0.2,3.7,0.7V173.6z"/>
	</g>
	<path fill-rule="evenodd" fill="#000E78" d="M662.3,173.1h5.4v38.4h-5.4V173.1z M661.4,162.2c0-2,1.6-3.6,3.6-3.6s3.6,1.6,3.6,3.6   c0,2-1.6,3.6-3.6,3.6S661.4,164.2,661.4,162.2z"/>
	<path fill-rule="evenodd" fill="#000E78" d="M710.6,205.6c-3.5,3.6-8.5,5.9-13.9,5.9c-10.6,0-19.3-8.6-19.3-19.3S686,173,696.7,173   c5.5,0,10.4,2.3,13.9,5.9v-20.5h5.5v52.8h-5.5V205.6z M682.9,192.3c0-7.6,6.2-13.8,13.8-13.8c7.6,0,13.8,6.2,13.8,13.8   c0,7.6-6.2,13.8-13.8,13.8C689,206.1,682.9,199.9,682.9,192.3z"/>
	<g>
		<polygon fill-rule="evenodd" fill="#000E78" points="492.9,199.4 513.4,157.5 527.3,210.9 521.5,210.9 511.8,173.1 492.9,211.8     474,173.1 464.2,210.9 458.5,210.9 472.3,157.5 492.9,199.4   "/>
	</g>
</g>
</svg>