<?xml version="1.0" encoding="UTF-8" standalone="no"?>
<!-- Created with Inkscape (http://www.inkscape.org/) -->
<svg xmlns:dc="http://purl.org/dc/elements/1.1/" xmlns:cc="http://creativecommons.org/ns#" xmlns:rdf="http://www.w3.org/1999/02/22-rdf-syntax-ns#" xmlns:svg="http://www.w3.org/2000/svg" xmlns="http://www.w3.org/2000/svg" xmlns:sodipodi="http://sodipodi.sourceforge.net/DTD/sodipodi-0.dtd" xmlns:inkscape="http://www.inkscape.org/namespaces/inkscape" width="70" height="60" id="svg2" version="1.1" inkscape:version="0.48.3.1 r9886" sodipodi:docname="ras_logo.svg">
  <defs id="defs4"/>
  <sodipodi:namedview id="base" pagecolor="#ffffff" bordercolor="#666666" borderopacity="1.0" inkscape:pageopacity="0.0" inkscape:pageshadow="2" inkscape:zoom="8.0596675" inkscape:cx="35.000003" inkscape:cy="30.581495" inkscape:document-units="px" inkscape:current-layer="layer1" showgrid="false" inkscape:window-width="1600" inkscape:window-height="873" inkscape:window-x="0" inkscape:window-y="-5" inkscape:window-maximized="1" fit-margin-top="10" fit-margin-left="10" fit-margin-right="10" fit-margin-bottom="10" inkscape:snap-page="false" inkscape:snap-grids="false" inkscape:snap-to-guides="false"/>
  <metadata id="metadata7">
    <rdf:RDF>
      <cc:Work rdf:about="">
        <dc:format>image/svg+xml</dc:format>
        <dc:type rdf:resource="http://purl.org/dc/dcmitype/StillImage"/>
        <dc:title/>
      </cc:Work>
    </rdf:RDF>
  </metadata>
  <g inkscape:label="Layer 1" inkscape:groupmode="layer" id="layer1" transform="translate(545.34652,-1371.7411)">
    <g id="g3066" transform="matrix(0.04535801,0,0,0.04535801,-508.54783,1385.1069)">
      <path style="fill:#50344a" d="m -478.14288,1018.8442 c -2.2,-0.1786 -9.85,-0.8013 -17,-1.3838 -77.81779,-6.3398 -148.06695,-29.42506 -199.8152,-65.66346 -38.52141,-26.9758 -70.9685,-65.8043 -89.84451,-107.5143 -53.0413,-117.2046 -25.15228,-287.72557 72.17178,-441.2776 23.50767,-37.08898 49.81395,-71.83239 80.80898,-106.72661 36.0959,-40.63679 73.52937,-72.1253 116.48169,-97.98279 35.97724,-21.65846 70.01713,-36.10186 106.69726,-45.2725 57.36424,-14.342 106.58224,-13.02078 144.41663,3.87675 13.17335,5.88346 34.26385,22.49799 39.67679,31.2563 3.24115,5.2443 2.13037,7.13783 -7.80432,13.30388 -24.49221,15.20131 -72.17263,47.56574 -98.46899,66.83862 -113.89737,83.47657 -212.77094,181.78051 -273.28077,271.70635 -56.08558,83.35081 -82.43117,159.8333 -76.63722,222.4814 6.74438,72.9247 49.82434,126.1526 126.25431,155.9949 91.37158,35.6763 220.84335,34.2971 374.71112,-3.9914 l 28.36756,-7.059 3.35825,1.7871 c 4.62094,2.4589 46.17243,36.2343 46.89588,38.1195 0.32133,0.8374 0.005,2.0804 -0.7025,2.7623 -1.56003,1.503 -30.32093,11.9108 -56.28674,20.3688 -82.90976,27.0065 -162.92672,43.01996 -240,48.03026 -13.6266,0.8859 -70.32418,1.1305 -80,0.3453 z M 4.91613,964.38054 c -4.66532,-1.0934 -7.32641,-3.054 -36.69489,-27.0362 -42.01221,-34.3071 -76.78081,-62.4616 -144.36412,-116.9013 -12.65,-10.1898 -32.45,-26.1466 -44,-35.4595 -11.55,-9.3129 -29.775,-23.9741 -40.5,-32.5804 -61.85191,-49.6331 -100.63862,-80.7176 -142.5,-114.2027 -25.85,-20.6775 -48.71342,-39.08044 -50.80759,-40.89543 -6.27011,-5.43419 -6.86117,-8.65623 -6.65349,-36.27005 0.0994,-13.21646 0.59744,-25.71289 1.10674,-27.76986 1.0047,-4.05775 0.51023,-3.82462 12.35434,-5.8247 34.75498,-5.86898 115.00692,-46.03714 159.5,-79.83385 48.29336,-36.68338 93.00721,-88.57739 118.56269,-137.60151 18.41143,-35.31938 26.07464,-61.33731 27.16061,-92.21503 1.09146,-31.03345 -4.14923,-52.32451 -18.17633,-73.84399 -19.85845,-30.46554 -55.40325,-50.50974 -96.54697,-54.44415 -6.325,-0.60484 -14.425,-1.41406 -18,-1.79827 -3.575,-0.38421 -9.875,-0.38601 -14,-0.004 -4.125,0.38201 -13.35,1.19751 -20.5,1.81221 -35.55802,3.05701 -62.99506,11.11856 -119.2817,35.04736 -5.10494,2.17023 -9.53417,3.94587 -9.84272,3.94587 -0.30856,0 -7.35772,2.73774 -15.6648,6.08388 -11.46202,4.61695 -16.32226,6.08819 -20.15728,6.10178 -6.96206,0.0247 -10.5535,-1.5157 -10.5535,-4.52637 0,-2.41163 8.04942,-9.26375 28,-23.83517 75.33969,-55.02629 165.38883,-87.75931 241.57632,-87.81341 46.15703,-0.0328 91.48882,11.52506 124.77588,31.81298 3.76872,2.29697 7.02959,4.17631 7.24639,4.17631 0.2168,0 3.6583,2.31403 7.64779,5.14228 58.49768,41.47056 90.37211,105.66476 96.84311,195.03931 0.68804,9.50296 0.90144,20.6916 0.49589,26 -0.39154,5.12512 -0.91152,12.91841 -1.15549,17.31841 -2.34714,42.32933 -16.05939,92.92321 -34.45154,127.11539 -26.19732,48.70245 -62.8347,86.69149 -112.72835,116.88719 -4.5375,2.74611 -8.25,5.57823 -8.25,6.2936 0,1.21739 8.7774,16.98756 20.98528,37.70382 7.90216,13.40963 15.99186,27.3352 18.39047,31.65728 1.16834,2.10524 5.25543,9.11858 9.08242,15.58521 3.82699,6.46663 9.9596,16.93251 13.62801,23.25751 3.66841,6.325 13.97793,24.1 22.91005,39.5 8.93211,15.4 17.0224,29.35 17.97842,31 10.05798,17.3592 22.06775,37.9629 30.01894,51.5 5.33033,9.075 17.91346,30.675 27.9625,48 10.04905,17.325 21.29122,36.675 24.9826,43 3.69139,6.325 9.57511,16.45 13.07495,22.5 8.26192,14.282 14.81268,25.5113 20.85526,35.75 8.74775,14.8224 10.3617,18.4236 9.66947,21.5753 -0.90102,4.1023 -5.28624,7.8857 -10.53837,9.0922 -5.60911,1.2884 -73.91826,1.2523 -79.44099,-0.042 z m 502.44299,-1.7348 c -3.1515,-1.6901 -6.1791,-7.1695 -33.2902,-60.25 -16.4028,-32.1149 -45.3862,-88.7657 -64.4074,-125.8907 -26.7555,-52.2204 -34.6916,-68.5453 -35.0588,-72.1176 l -0.4746,-4.6177 10.8645,-9.2655 c 37.4555,-31.9429 109.4431,-103.43442 145.5259,-144.52296 4.8414,-5.51307 10.1661,-10.82918 11.8325,-11.81359 3.3468,-1.97697 6.4835,-1.5076 7.925,1.18586 0.5043,0.94218 1.8722,11.5992 3.04,23.68227 16.7756,173.58662 37.0411,389.26222 37.0411,394.21082 0,5.4079 -0.3639,6.7132 -2.4545,8.8039 l -2.4546,2.4545 -37.311,0 c -34.46,0 -37.576,-0.1421 -40.7779,-1.8593 z M 90.15461,854.75504 c -0.83186,-0.9625 -6.82816,-11.65 -13.32511,-23.75 -6.49694,-12.1 -19.22342,-35.5 -28.28105,-52 -9.05764,-16.5 -17.56932,-32.025 -18.91486,-34.5 -1.9944,-3.6685 -2.34329,-5.4094 -1.8882,-9.4219 0.58961,-5.1987 -4.93025,5.0181 212.09923,-392.5781 42.1809,-77.275 96.3002,-176.43993 120.2651,-220.36652 23.9649,-43.92659 44.6644,-81.16409 45.9989,-82.75 l 2.4263,-2.88348 43.7368,0 43.7368,0 2.0872,2.25 c 1.8201,1.96199 2.482,5.77012 5.1705,29.75 3.7123,33.11213 11.2113,104.54899 18.0552,172 2.7625,27.225 5.2685,50.94925 5.5689,52.72056 0.8406,4.95486 4.9886,9.27944 8.9007,9.27944 9.711,0 35.3814,-26.03521 58.141,-58.96726 41.9895,-60.75696 70.2458,-136.416 77.507,-207.53274 5.507,-53.93535 -8.0166,-108.54235 -37.0819,-149.73309 -8.9974,-12.751 -27.9456,-31.48943 -42,-41.53518 -21.4357,-15.32167 -51.5377,-28.35059 -80,-34.626 -23.4635,-5.17327 -33.9791,-6.10737 -68.5,-6.08486 -33.9238,0.0221 -43.0204,0.76084 -75,6.09056 -122.0245,20.33657 -272.69194,88.91339 -416.97819,189.78914 -9.36199,6.54531 -18.55706,12.54424 -20.43347,13.33096 -4.67408,1.95969 -8.14567,1.1392 -24.08834,-5.69314 -71.19316,-30.51035 -153.63561,-31.7373 -240.7267,-3.58263 -11.58688,3.74578 -13.79185,4.13225 -14.74816,2.58492 -1.30755,-2.11566 3.00936,-5.91569 27.08612,-23.84304 25.1362,-18.71621 29.5563,-21.86417 56.14156,-39.98353 156.84646,-106.89978 340.52458,-185.79284 501.06248,-215.21539 115.0694,-21.08929 216.8352,-17.98712 297.3258,9.06353 23.6935,7.96271 50.0923,20.05975 66.3589,30.40844 2.75,1.74953 6.35,3.99969 8,5.00036 1.65,1.00067 6.375,4.31324 10.5,7.36128 24.9233,18.41627 42.2036,35.38739 58.3884,57.344 13.2501,17.97523 15.2176,21.20841 25.1462,41.32367 9.2659,18.77251 17.5649,42.18998 21.9612,61.9685 19.4257,87.39359 3.9097,191.33935 -45.1234,302.29301 -16.1381,36.51778 -44.233,88.20508 -65.3563,120.23849 -2.7201,4.125 -6.3323,9.75 -8.0272,12.5 -1.6948,2.75 -5.5928,8.6 -8.6623,13 -3.0694,4.4 -8.0703,11.6 -11.1131,16 -9.6435,13.94483 -38.179,51.37291 -52.6061,69 -27.834,34.0077 -52.9279,61.7933 -86.5581,95.84305 -59.0051,59.74109 -117.0588,109.82055 -195.5292,168.67115 -16.5111,12.3829 -40.5618,30.6079 -53.4462,40.5 -61.77409,47.4281 -103.35729,78.4858 -105.0847,78.4858 -0.37357,0 -1.35984,-0.7875 -2.19171,-1.75 z" id="path3070" inkscape:connector-curvature="0" sodipodi:nodetypes="csssssssssssssssccccsscsssssssssssssssssssssssssssssssssssssssssssssscscssccssccssccscssssssscccccsscsssssssssssssssssssssssssccsssssss"/>
      <path style="fill:#882322" d="m 2.50631,962.97174 c -3.07573,-1.3355 -11.19883,-7.308 -20.29042,-14.9186 -3.93292,-3.2923 -5.06768,-4.2162 -15.41183,-12.5481 -3.75556,-3.025 -8.65499,-7.1004 -10.88762,-9.0565 -2.23262,-1.9561 -6.53323,-5.3311 -9.55689,-7.5 -3.02367,-2.1689 -7.83368,-5.9685 -10.6889,-8.4435 -14.06393,-12.191 -24.23824,-20.5052 -28.31353,-23.137 -1.375,-0.8879 -8.125,-6.3816 -15,-12.2081 -15.91299,-13.4862 -21.49241,-17.9814 -35.92845,-28.9465 -2.7455,-2.0854 -9.91366,-7.9354 -15.92925,-13 -15.68389,-13.2045 -54.74206,-44.4567 -59.66237,-47.7385 -2.42889,-1.6201 -9.16549,-7.1302 -15.91391,-13.0165 -3.98187,-3.4733 -8.14259,-6.8403 -24.65694,-19.9534 -4.50227,-3.575 -12.34071,-9.875 -17.41875,-14 -5.07804,-4.125 -11.87825,-9.6242 -15.11157,-12.2205 -3.23332,-2.5963 -9.6675,-7.7713 -14.29818,-11.5 -4.63068,-3.7287 -12.28068,-9.775 -17,-13.4361 -4.71932,-3.6611 -9.53259,-7.6037 -10.69616,-8.7613 -1.16356,-1.1576 -4.08856,-3.5322 -6.5,-5.277 -2.41143,-1.7447 -4.97906,-3.7646 -5.70585,-4.4887 -0.72678,-0.724 -1.62678,-1.3192 -2,-1.3225 -0.37321,0 -3.15357,-2.287 -6.17857,-5.0746 -3.025,-2.7876 -7.44363,-6.4974 -9.81917,-8.2439 -2.37555,-1.7465 -6.25915,-4.7504 -8.63023,-6.6754 -2.37108,-1.925 -6.01433,-4.85 -8.09611,-6.5 -2.08179,-1.65 -6.52319,-5.2664 -9.86978,-8.03642 -3.34659,-2.77003 -9.68471,-7.90313 -14.08471,-11.40687 -4.4,-3.50374 -8.675,-6.97562 -9.5,-7.71527 -2.32935,-2.0884 -11.31308,-8.8688 -13.1285,-9.90865 -0.89568,-0.51304 -4.27068,-3.24736 -7.5,-6.07629 -3.22933,-2.82892 -8.5715,-7.17722 -11.8715,-9.66289 -3.3,-2.48567 -7.35,-5.93745 -9,-7.67063 l -3,-3.15122 -0.29321,-28.92089 c -0.17558,-17.3188 0.0948,-29.64588 0.67399,-30.7281 0.69284,-1.29458 3.18712,-2.17979 8.79321,-3.12064 8.08127,-1.35626 23.59026,-5.95962 35.82601,-10.63385 3.85,-1.47076 8.62891,-3.28039 10.61979,-4.02141 5.01526,-1.8667 28.10622,-12.62333 35.38021,-16.48141 3.3,-1.7503 9.825,-5.20885 14.5,-7.68567 9.45763,-5.01066 35.83922,-20.40847 40.5,-23.63813 1.65,-1.14336 5.25,-3.53068 8,-5.30515 8.21255,-5.29925 15.13824,-10.41056 24.84546,-18.33651 5.05206,-4.125 10.75358,-8.67712 12.67005,-10.11582 4.62281,-3.47036 35.52626,-34.20118 44.915,-44.66411 14.36184,-16.005 30.42189,-37.24224 40.24614,-53.22007 14.07628,-22.89319 17.23161,-29.03078 27.24732,-53 1.49384,-3.575 3.11546,-7.4 3.60361,-8.5 1.42547,-3.2122 5.6103,-18.35885 7.32161,-26.5 6.88826,-32.76923 3.61112,-67.25713 -8.71721,-91.73792 -7.79762,-15.48402 -23.21128,-33.50639 -35.53091,-41.54443 -10.4955,-6.84786 -27.85759,-15.71765 -30.76638,-15.71765 -0.80639,0 -2.44106,-0.52174 -3.63259,-1.15943 -2.93594,-1.57127 -14.56119,-4.69833 -23.7021,-6.37559 -12.95732,-2.37755 -34.65248,-3.37284 -50.68852,-2.32541 -14.77614,0.96513 -45.34958,5.63828 -54.16214,8.27868 -2.55714,0.76616 -8.24934,2.37407 -12.64934,3.57313 -9.64461,2.62829 -16.66147,5.04174 -17.95,6.1739 -0.5225,0.4591 -1.79446,0.83472 -2.82657,0.83472 -1.76538,0 -10.85595,3.52748 -25.72343,9.98166 -3.575,1.55196 -8.525,3.62058 -11,4.59694 -2.475,0.97637 -6.3,2.51599 -8.5,3.4214 -5.27374,2.1704 -10.02657,4.06499 -21.5,8.57042 -5.225,2.05177 -9.95,4.06402 -10.5,4.47166 -1.97578,1.46437 -12.60593,3.09395 -15.77003,2.4175 -7.65406,-1.63634 -7.5436,-4.71483 0.39694,-11.06206 19.85656,-15.87224 48.40838,-35.18255 70.87309,-47.93324 64.32835,-36.51198 129.28437,-55.33536 191.28941,-55.43309 38.75652,-0.0611 68.53606,5.60019 100.4506,19.09628 19.8202,8.3816 29.69844,14.23928 49.25999,29.21057 28.34783,21.6958 52.54139,55.25541 67.1617,93.16196 22.16221,57.4607 25.62864,130.60287 9.33312,196.92982 -2.72549,11.09342 -9.45669,32.59885 -11.91597,38.07018 -0.74165,1.65 -2.71463,6.15 -4.38438,10 -10.20235,23.52379 -25.34147,49.02767 -37.19447,62.65907 -0.825,0.94879 -3.975,4.69753 -7,8.33055 -6.71946,8.07005 -26.15552,27.30359 -35,34.6353 -13.13321,10.8869 -21.72788,16.9803 -44.0072,31.19996 -6.64618,4.24189 -7.51711,6.64931 -4.16784,11.52075 1.00373,1.4599 4.67636,7.82937 8.1614,14.15437 3.48504,6.325 7.09211,12.4 8.01572,13.5 0.9236,1.1 3.60192,5.6 5.95182,10 4.74416,8.88308 27.26147,47.45919 30.18341,51.7095 1.02448,1.4902 1.86269,3.0018 1.86269,3.359 0,0.3572 2.87033,5.4379 6.37851,11.2905 7.16361,11.9508 19.51729,33.0791 22.0086,37.641 1.97986,3.6254 3.06466,5.4362 7.32925,12.2346 1.806,2.8791 3.28364,5.552 3.28364,5.9399 0,0.8024 6.64356,12.2436 11.64836,20.0601 1.8434,2.8791 3.35164,5.5436 3.35164,5.9213 0,0.3776 0.62008,1.3971 1.37795,2.2654 0.75788,0.8683 2.94746,4.5037 4.86575,8.0787 5.77562,10.7637 8.84715,16.128 13.74219,24 2.56504,4.125 5.33476,8.85 6.15494,10.5 1.87083,3.7636 1.65942,3.3988 14.48591,25 12.76725,21.5015 13.71274,23.1384 18.19391,31.5 1.91592,3.575 4.48867,7.85 5.7172,9.5 1.22854,1.65 3.24699,5.025 4.48544,7.5 1.23846,2.475 5.62786,10.125 9.75423,17 4.12637,6.875 9.62073,16.325 12.20969,21 6.34034,11.449 14.55719,25.5157 22.84234,39.1045 6.97546,11.4407 6.66978,17.405 -1.07212,20.9191 -3.97702,1.8052 -6.82607,1.9313 -43.25743,1.9153 -31.89997,-0.014 -39.61002,-0.2821 -42.35081,-1.4722 z" id="path3068" inkscape:connector-curvature="0" sodipodi:nodetypes="sssssscsssccsssssscccssssssssssscssssssssssssssssssssssssssssssssssssssssssssssssssssssscsssssssssssssss"/>
    </g>
  </g>
</svg>