<?xml version="1.0" encoding="UTF-8" standalone="no"?>
<!-- Generator: Adobe Illustrator 14.0.0, SVG Export Plug-In . SVG Version: 6.00 Build 43363)  -->

<svg
   xmlns:ns="&amp;#38;ns_sfw;"
   xmlns:dc="http://purl.org/dc/elements/1.1/"
   xmlns:cc="http://creativecommons.org/ns#"
   xmlns:rdf="http://www.w3.org/1999/02/22-rdf-syntax-ns#"
   xmlns:svg="http://www.w3.org/2000/svg"
   xmlns="http://www.w3.org/2000/svg"
   xmlns:sodipodi="http://sodipodi.sourceforge.net/DTD/sodipodi-0.dtd"
   xmlns:inkscape="http://www.inkscape.org/namespaces/inkscape"
   version="1.1"
   id="Capa_1"
   x="0px"
   y="0px"
   width="359.48099"
   height="45.265991"
   viewBox="0 0 359.48099 45.265993"
   enable-background="new 0 0 1046.948 1088.945"
   xml:space="preserve"
   inkscape:version="0.48.4 r9939"
   sodipodi:docname="roboticslab-letras-varios.svg"><defs
     id="defs181" /><sodipodi:namedview
     pagecolor="#ffffff"
     bordercolor="#666666"
     borderopacity="1"
     objecttolerance="10"
     gridtolerance="10"
     guidetolerance="10"
     inkscape:pageopacity="0"
     inkscape:pageshadow="2"
     inkscape:window-width="1920"
     inkscape:window-height="1017"
     id="namedview179"
     showgrid="false"
     inkscape:zoom="0.21672354"
     inkscape:cx="117.338"
     inkscape:cy="306.39449"
     inkscape:window-x="-8"
     inkscape:window-y="-8"
     inkscape:window-maximized="1"
     inkscape:current-layer="Capa_1"
     fit-margin-top="0"
     fit-margin-left="0"
     fit-margin-right="0"
     fit-margin-bottom="0" /><metadata
     id="metadata3"><ns:sfw><ns:slices /><ns:sliceSourceBounds
         height="879.376"
         width="1046.948"
         x="-596.364"
         y="73.01"
         bottomLeftOrigin="true" /></ns:sfw><rdf:RDF><cc:Work
         rdf:about=""><dc:format>image/svg+xml</dc:format><dc:type
           rdf:resource="http://purl.org/dc/dcmitype/StillImage" /><dc:title></dc:title></cc:Work></rdf:RDF></metadata><g
     id="g145"
     transform="translate(-406.13602,-805.60101)"><g
       id="g147"><g
         id="g149"><path
           d="m 435.295,850.514 h -3.804 l -10.26,-19.813 h -11.823 v 19.813 h -3.272 v -42.986 h 16.363 c 2.378,0 4.496,0.447 6.354,1.342 1.858,0.895 3.316,2.211 4.378,3.951 1.062,1.738 1.593,3.818 1.593,6.234 0,3.146 -0.88,5.73 -2.64,7.756 -1.759,2.023 -4.182,3.301 -7.268,3.832 l 10.379,19.871 z m -3.745,-31.399 c 0,-2.85 -0.859,-5.014 -2.579,-6.486 -1.721,-1.475 -4.015,-2.211 -6.885,-2.211 h -12.678 v 17.395 h 12.678 c 1.396,0 2.673,-0.182 3.833,-0.545 1.159,-0.365 2.152,-0.9 2.978,-1.607 0.826,-0.707 1.475,-1.611 1.946,-2.713 0.471,-1.1 0.707,-2.378 0.707,-3.833 z"
           id="path151"
           inkscape:connector-curvature="0"
           style="fill:#55b8e3" /><path
           d="m 471.179,829.021 c 0,3.871 -0.069,6.721 -0.207,8.549 -0.138,1.828 -0.481,3.451 -1.031,4.865 -0.551,1.416 -1.465,2.762 -2.742,4.039 -1.396,1.396 -3.022,2.477 -4.88,3.244 -1.857,0.766 -3.808,1.148 -5.853,1.148 -2.044,0 -4,-0.383 -5.867,-1.148 -1.867,-0.768 -3.498,-1.848 -4.894,-3.244 -1.278,-1.277 -2.192,-2.623 -2.742,-4.039 -0.551,-1.414 -0.895,-3.037 -1.032,-4.865 -0.137,-1.828 -0.206,-4.678 -0.206,-8.549 0,-3.873 0.068,-6.723 0.206,-8.551 0.138,-1.828 0.481,-3.449 1.032,-4.865 0.55,-1.414 1.464,-2.76 2.742,-4.039 1.396,-1.395 3.021,-2.477 4.879,-3.242 1.857,-0.768 3.818,-1.15 5.882,-1.15 2.064,0 4.02,0.383 5.867,1.15 1.848,0.766 3.47,1.848 4.865,3.242 1.277,1.279 2.191,2.625 2.742,4.039 0.55,1.416 0.894,3.037 1.031,4.865 0.137,1.828 0.208,4.678 0.208,8.551 z m -3.274,0 c 0,-3.4 -0.068,-5.996 -0.206,-7.783 -0.137,-1.789 -0.441,-3.299 -0.912,-4.527 -0.472,-1.227 -1.208,-2.344 -2.209,-3.346 -1.099,-1.1 -2.341,-1.926 -3.725,-2.477 -1.384,-0.551 -2.852,-0.826 -4.402,-0.826 -1.531,0 -2.999,0.275 -4.402,0.826 -1.403,0.551 -2.654,1.377 -3.754,2.477 -0.766,0.768 -1.359,1.563 -1.781,2.389 -0.422,0.824 -0.751,1.867 -0.986,3.125 -0.235,1.258 -0.383,2.693 -0.441,4.305 -0.06,1.611 -0.089,3.557 -0.089,5.838 0,3.4 0.069,5.99 0.206,7.768 0.138,1.779 0.441,3.287 0.913,4.525 0.471,1.238 1.197,2.35 2.179,3.332 1.08,1.082 2.326,1.908 3.739,2.477 1.414,0.57 2.886,0.855 4.417,0.855 1.551,0 3.023,-0.285 4.417,-0.855 1.394,-0.568 2.63,-1.395 3.71,-2.477 1.021,-1.021 1.762,-2.143 2.224,-3.361 0.461,-1.217 0.761,-2.717 0.897,-4.496 0.137,-1.778 0.205,-4.368 0.205,-7.769 z"
           id="path153"
           inkscape:connector-curvature="0"
           style="fill:#55b8e3" /><path
           d="m 509.273,838.803 c 0,3.756 -1.131,6.646 -3.391,8.672 -2.261,2.027 -5.336,3.039 -9.229,3.039 h -16.304 v -42.986 h 15.832 c 2.418,0 4.565,0.447 6.442,1.342 1.877,0.893 3.347,2.193 4.408,3.904 1.061,1.709 1.592,3.701 1.592,5.98 0,2.258 -0.6,4.252 -1.799,5.98 -1.199,1.728 -2.84,2.947 -4.924,3.654 2.359,0.807 4.177,2.119 5.455,3.939 1.28,1.819 1.918,3.978 1.918,6.476 z m -3.92,-20.041 c 0,-1.889 -0.418,-3.455 -1.253,-4.703 -0.836,-1.248 -1.971,-2.168 -3.405,-2.758 -1.436,-0.59 -3.057,-0.883 -4.865,-0.883 h -12.206 v 16.656 h 12.206 c 2.791,0 5.076,-0.691 6.854,-2.078 1.779,-1.385 2.669,-3.465 2.669,-6.234 z m 0.648,20.033 c 0,-1.83 -0.397,-3.406 -1.192,-4.725 -0.796,-1.32 -1.919,-2.334 -3.372,-3.043 -1.452,-0.709 -3.17,-1.063 -5.152,-1.063 h -12.661 v 17.66 h 12.661 c 1.982,0 3.7,-0.354 5.152,-1.063 1.453,-0.709 2.576,-1.729 3.372,-3.057 0.795,-1.328 1.192,-2.899 1.192,-4.709 z"
           id="path155"
           inkscape:connector-curvature="0"
           style="fill:#55b8e3" /><path
           d="m 546.218,829.021 c 0,3.871 -0.069,6.721 -0.207,8.549 -0.138,1.828 -0.481,3.451 -1.031,4.865 -0.551,1.416 -1.465,2.762 -2.742,4.039 -1.396,1.396 -3.022,2.477 -4.88,3.244 -1.857,0.766 -3.808,1.148 -5.853,1.148 -2.044,0 -4,-0.383 -5.867,-1.148 -1.867,-0.768 -3.498,-1.848 -4.894,-3.244 -1.278,-1.277 -2.192,-2.623 -2.742,-4.039 -0.551,-1.414 -0.895,-3.037 -1.032,-4.865 -0.137,-1.828 -0.206,-4.678 -0.206,-8.549 0,-3.873 0.068,-6.723 0.206,-8.551 0.138,-1.828 0.481,-3.449 1.032,-4.865 0.55,-1.414 1.464,-2.76 2.742,-4.039 1.396,-1.395 3.021,-2.477 4.879,-3.242 1.857,-0.768 3.818,-1.15 5.882,-1.15 2.064,0 4.02,0.383 5.867,1.15 1.848,0.766 3.47,1.848 4.865,3.242 1.277,1.279 2.191,2.625 2.742,4.039 0.55,1.416 0.894,3.037 1.031,4.865 0.137,1.828 0.208,4.678 0.208,8.551 z m -3.274,0 c 0,-3.4 -0.068,-5.996 -0.206,-7.783 -0.137,-1.789 -0.441,-3.299 -0.912,-4.527 -0.472,-1.227 -1.208,-2.344 -2.209,-3.346 -1.099,-1.1 -2.341,-1.926 -3.725,-2.477 -1.384,-0.551 -2.852,-0.826 -4.402,-0.826 -1.531,0 -2.999,0.275 -4.402,0.826 -1.403,0.551 -2.654,1.377 -3.754,2.477 -0.766,0.768 -1.359,1.563 -1.781,2.389 -0.422,0.824 -0.751,1.867 -0.986,3.125 -0.235,1.258 -0.383,2.693 -0.441,4.305 -0.06,1.611 -0.089,3.557 -0.089,5.838 0,3.4 0.069,5.99 0.206,7.768 0.138,1.779 0.441,3.287 0.913,4.525 0.471,1.238 1.197,2.35 2.179,3.332 1.08,1.082 2.326,1.908 3.739,2.477 1.414,0.57 2.886,0.855 4.417,0.855 1.551,0 3.023,-0.285 4.417,-0.855 1.394,-0.568 2.63,-1.395 3.71,-2.477 1.021,-1.021 1.762,-2.143 2.224,-3.361 0.461,-1.217 0.761,-2.717 0.897,-4.496 0.137,-1.778 0.205,-4.368 0.205,-7.769 z"
           id="path157"
           inkscape:connector-curvature="0"
           style="fill:#55b8e3" /><path
           d="m 579.478,810.418 h -12.855 v 40.096 h -3.273 v -40.096 h -12.795 v -2.891 h 28.923 v 2.891 z"
           id="path159"
           inkscape:connector-curvature="0"
           style="fill:#55b8e3" /><path
           d="m 588.796,850.514 h -3.271 v -42.986 h 3.271 v 42.986 z"
           id="path161"
           inkscape:connector-curvature="0"
           style="fill:#55b8e3" /><path
           d="m 624.828,845.502 c -1.887,1.789 -3.773,3.131 -5.66,4.025 -1.887,0.894 -4.039,1.34 -6.457,1.34 -2.045,0 -4,-0.383 -5.867,-1.148 -1.867,-0.768 -3.498,-1.848 -4.895,-3.244 -1.277,-1.277 -2.191,-2.623 -2.742,-4.039 -0.551,-1.414 -0.895,-3.037 -1.031,-4.865 -0.139,-1.828 -0.207,-4.678 -0.207,-8.549 0,-3.873 0.068,-6.723 0.207,-8.551 0.137,-1.828 0.48,-3.449 1.031,-4.865 0.551,-1.414 1.465,-2.76 2.742,-4.039 1.396,-1.395 3.021,-2.477 4.879,-3.242 1.857,-0.768 3.818,-1.15 5.883,-1.15 2.418,0 4.59,0.457 6.516,1.371 1.926,0.914 3.793,2.246 5.602,3.994 l -2.152,2.182 c -1.592,-1.592 -3.129,-2.766 -4.613,-3.521 -1.484,-0.758 -3.268,-1.137 -5.352,-1.137 -1.553,0 -3.037,0.281 -4.451,0.842 -1.416,0.559 -2.654,1.381 -3.715,2.461 -0.768,0.768 -1.361,1.563 -1.785,2.389 -0.422,0.824 -0.752,1.867 -0.986,3.125 -0.236,1.258 -0.385,2.693 -0.443,4.305 -0.058,1.612 -0.088,3.557 -0.088,5.838 0,3.4 0.068,5.99 0.207,7.768 0.137,1.779 0.441,3.287 0.912,4.525 0.473,1.238 1.199,2.35 2.184,3.332 1.041,1.063 2.273,1.883 3.699,2.463 1.426,0.58 2.914,0.869 4.467,0.869 1.375,0 2.648,-0.182 3.818,-0.545 1.168,-0.363 2.205,-0.871 3.109,-1.52 0.904,-0.649 1.918,-1.512 3.037,-2.594 l 2.151,2.18 z"
           id="path163"
           inkscape:connector-curvature="0"
           style="fill:#55b8e3" /><path
           d="m 658.47,838.986 c 0,1.77 -0.33,3.396 -0.988,4.879 -0.658,1.484 -1.611,2.742 -2.859,3.773 -1.248,1.033 -2.781,1.828 -4.6,2.389 -1.819,0.561 -3.828,0.84 -6.029,0.84 -2.045,0 -3.912,-0.195 -5.602,-0.59 -1.691,-0.393 -3.244,-1.012 -4.658,-1.857 -1.416,-0.844 -2.771,-1.916 -4.068,-3.213 l 2.299,-2.299 c 1.295,1.297 2.543,2.314 3.74,3.051 1.197,0.737 2.482,1.258 3.857,1.563 1.373,0.305 2.904,0.457 4.594,0.457 2.256,0 4.209,-0.35 5.859,-1.047 1.648,-0.697 2.924,-1.719 3.828,-3.066 0.902,-1.346 1.354,-2.934 1.354,-4.762 0,-2.633 -0.785,-4.648 -2.355,-6.043 -0.727,-0.629 -1.531,-1.105 -2.414,-1.43 -0.883,-0.325 -2.148,-0.615 -3.797,-0.871 l -5.006,-0.766 c -3.26,-0.492 -5.813,-1.543 -7.658,-3.154 -2.258,-1.887 -3.387,-4.521 -3.387,-7.902 0,-1.809 0.318,-3.443 0.957,-4.908 0.639,-1.465 1.527,-2.703 2.666,-3.715 1.139,-1.014 2.543,-1.789 4.213,-2.33 1.67,-0.541 3.506,-0.811 5.51,-0.811 2.611,0 4.861,0.369 6.746,1.105 1.885,0.736 3.762,1.912 5.627,3.523 l -2.131,2.123 c -1.512,-1.357 -3.039,-2.359 -4.578,-3.008 -1.541,-0.648 -3.49,-0.973 -5.846,-0.973 -3.102,0 -5.535,0.797 -7.301,2.389 -1.768,1.592 -2.65,3.754 -2.65,6.486 0,2.496 0.736,4.363 2.209,5.602 0.805,0.648 1.791,1.213 2.957,1.695 1.168,0.482 2.322,0.801 3.461,0.957 l 4.623,0.738 c 1.988,0.295 3.543,0.648 4.664,1.061 1.123,0.414 2.127,1.002 3.014,1.77 1.219,1.002 2.15,2.217 2.789,3.641 0.64,1.426 0.96,2.992 0.96,4.703 z"
           id="path165"
           inkscape:connector-curvature="0"
           style="fill:#55b8e3" /><path
           d="m 692.466,850.514 h -27.271 v -42.986 h 6.574 v 37.119 h 20.697 v 5.867 z"
           id="path167"
           inkscape:connector-curvature="0"
           style="fill:#355f70" /><path
           d="m 731.56,850.514 h -6.951 l -2.947,-8.639 h -16.969 l -2.945,8.639 h -6.953 l 15.762,-42.986 h 5.244 l 15.759,42.986 z m -11.725,-14.182 -6.51,-19.074 -6.688,19.074 h 13.198 z"
           id="path169"
           inkscape:connector-curvature="0"
           style="fill:#355f70" /><path
           d="m 765.617,838.367 c 0,2.594 -0.547,4.801 -1.639,6.619 -1.092,1.818 -2.627,3.193 -4.604,4.127 -1.977,0.934 -4.234,1.4 -6.773,1.4 h -17.412 v -42.986 h 16.764 c 2.598,0 4.885,0.477 6.861,1.43 1.977,0.955 3.492,2.32 4.545,4.1 1.053,1.777 1.58,3.857 1.58,6.234 0,1.475 -0.271,2.836 -0.813,4.084 -0.542,1.248 -1.252,2.299 -2.137,3.154 -0.885,0.855 -1.838,1.48 -2.859,1.873 1.848,0.707 3.391,1.916 4.629,3.625 1.239,1.711 1.858,3.825 1.858,6.34 z m -7.196,-18.824 c 0,-1.275 -0.289,-2.379 -0.869,-3.311 -0.58,-0.932 -1.396,-1.637 -2.447,-2.117 -1.051,-0.48 -2.285,-0.721 -3.699,-0.721 h -9.641 v 12.295 h 9.641 c 2.162,0 3.871,-0.539 5.129,-1.617 1.258,-1.078 1.886,-2.59 1.886,-4.529 z m 0.651,18.529 c 0,-1.316 -0.277,-2.457 -0.826,-3.42 -0.551,-0.963 -1.361,-1.721 -2.432,-2.27 -1.072,-0.551 -2.336,-0.826 -3.789,-0.826 h -10.26 v 13.09 h 10.26 c 1.475,0 2.742,-0.279 3.803,-0.84 1.061,-0.561 1.867,-1.332 2.418,-2.314 0.548,-0.982 0.826,-2.123 0.826,-3.42 z"
           id="path171"
           inkscape:connector-curvature="0"
           style="fill:#355f70" /></g></g><g
       id="g173"><circle
         cx="668.64899"
         cy="810.84601"
         r="5.2449999"
         id="circle175"
         sodipodi:cx="668.64899"
         sodipodi:cy="810.84601"
         sodipodi:rx="5.2449999"
         sodipodi:ry="5.2449999"
         style="fill:#355f70"
         d="m 673.89399,810.84601 c 0,2.89673 -2.34827,5.245 -5.245,5.245 -2.89674,0 -5.245,-2.34827 -5.245,-5.245 0,-2.89674 2.34826,-5.245 5.245,-5.245 2.89673,0 5.245,2.34826 5.245,5.245 z" /><circle
         cx="668.64801"
         cy="810.84601"
         r="2.895"
         id="circle177"
         sodipodi:cx="668.64801"
         sodipodi:cy="810.84601"
         sodipodi:rx="2.895"
         sodipodi:ry="2.895"
         style="fill:#ffffff"
         d="m 671.54301,810.84601 c 0,1.59886 -1.29614,2.895 -2.895,2.895 -1.59886,0 -2.895,-1.29614 -2.895,-2.895 0,-1.59887 1.29614,-2.895 2.895,-2.895 1.59886,0 2.895,1.29613 2.895,2.895 z" /></g></g></svg>