<?xml version="1.0" encoding="UTF-8" standalone="no"?>
<!-- Created with Inkscape (http://www.inkscape.org/) -->

<svg
   xmlns:dc="http://purl.org/dc/elements/1.1/"
   xmlns:cc="http://creativecommons.org/ns#"
   xmlns:rdf="http://www.w3.org/1999/02/22-rdf-syntax-ns#"
   xmlns:svg="http://www.w3.org/2000/svg"
   xmlns="http://www.w3.org/2000/svg"
   xmlns:sodipodi="http://sodipodi.sourceforge.net/DTD/sodipodi-0.dtd"
   xmlns:inkscape="http://www.inkscape.org/namespaces/inkscape"
   width="350"
   height="60"
   viewBox="0 0 350.00001 60.000002"
   id="svg2"
   version="1.1"
   inkscape:version="0.91 r13725"
   sodipodi:docname="roboticslab-banner.svg">
  <defs
     id="defs4">
    <clipPath
       id="clipPath9522"
       clipPathUnits="userSpaceOnUse">
      <path
         inkscape:connector-curvature="0"
         id="path9524"
         d="m 0,389.025 413.415,0 L 413.415,0 0,0 0,389.025 Z" />
    </clipPath>
    <clipPath
       id="clipPath9534"
       clipPathUnits="userSpaceOnUse">
      <path
         inkscape:connector-curvature="0"
         id="path9536"
         d="m 67.0601,297.039 274.5449,0 0,-256.9501 -274.5449,0 0,256.9501 z" />
    </clipPath>
    <clipPath
       id="clipPath9548"
       clipPathUnits="userSpaceOnUse">
      <path
         inkscape:connector-curvature="0"
         id="path9550"
         d="m 178.286,297.19 54.603,0 0,-41.406 -54.603,0 0,41.406 z" />
    </clipPath>
    <clipPath
       id="clipPath9564"
       clipPathUnits="userSpaceOnUse">
      <path
         inkscape:connector-curvature="0"
         id="path9566"
         d="m 217.221,168.206 84.667,0 0,-105.0859 -84.667,0 0,105.0859 z" />
    </clipPath>
    <clipPath
       id="clipPath9588"
       clipPathUnits="userSpaceOnUse">
      <path
         inkscape:connector-curvature="0"
         id="path9590"
         d="m 76.6758,294.687 89.8742,0 0,-68.947 -89.8742,0 0,68.947 z" />
    </clipPath>
    <clipPath
       id="clipPath9608"
       clipPathUnits="userSpaceOnUse">
      <path
         inkscape:connector-curvature="0"
         id="path9610"
         d="m 245.786,293.772 86.515,0 0,-67.364 -86.515,0 0,67.364 z" />
    </clipPath>
    <clipPath
       id="clipPath9644"
       clipPathUnits="userSpaceOnUse">
      <path
         inkscape:connector-curvature="0"
         id="path9646"
         d="m 108.906,168.746 90.315,0 0,-104.7245 -90.315,0 0,104.7245 z" />
    </clipPath>
  </defs>
  <sodipodi:namedview
     id="base"
     pagecolor="#ffffff"
     bordercolor="#666666"
     borderopacity="1.0"
     inkscape:pageopacity="0.0"
     inkscape:pageshadow="2"
     inkscape:zoom="2.8"
     inkscape:cx="119.71655"
     inkscape:cy="65.434653"
     inkscape:document-units="px"
     inkscape:current-layer="layer1"
     showgrid="false"
     inkscape:window-width="3070"
     inkscape:window-height="1752"
     inkscape:window-x="130"
     inkscape:window-y="48"
     inkscape:window-maximized="1"
     units="px" />
  <metadata
     id="metadata7">
    <rdf:RDF>
      <cc:Work
         rdf:about="">
        <dc:format>image/svg+xml</dc:format>
        <dc:type
           rdf:resource="http://purl.org/dc/dcmitype/StillImage" />
        <dc:title></dc:title>
      </cc:Work>
    </rdf:RDF>
  </metadata>
  <g
     inkscape:label="Layer 1"
     inkscape:groupmode="layer"
     id="layer1"
     transform="translate(0,-992.36221)">
    <g
       transform="matrix(0.77119371,0,0,0.77119371,-240.43902,383.63336)"
       id="g145">
      <g
         id="g147">
        <g
           id="g149">
          <path
             style="fill:#55b8e3"
             inkscape:connector-curvature="0"
             id="path151"
             d="m 435.295,850.514 -3.804,0 -10.26,-19.813 -11.823,0 0,19.813 -3.272,0 0,-42.986 16.363,0 c 2.378,0 4.496,0.447 6.354,1.342 1.858,0.895 3.316,2.211 4.378,3.951 1.062,1.738 1.593,3.818 1.593,6.234 0,3.146 -0.88,5.73 -2.64,7.756 -1.759,2.023 -4.182,3.301 -7.268,3.832 l 10.379,19.871 z m -3.745,-31.399 c 0,-2.85 -0.859,-5.014 -2.579,-6.486 -1.721,-1.475 -4.015,-2.211 -6.885,-2.211 l -12.678,0 0,17.395 12.678,0 c 1.396,0 2.673,-0.182 3.833,-0.545 1.159,-0.365 2.152,-0.9 2.978,-1.607 0.826,-0.707 1.475,-1.611 1.946,-2.713 0.471,-1.1 0.707,-2.378 0.707,-3.833 z" />
          <path
             style="fill:#55b8e3"
             inkscape:connector-curvature="0"
             id="path153"
             d="m 471.179,829.021 c 0,3.871 -0.069,6.721 -0.207,8.549 -0.138,1.828 -0.481,3.451 -1.031,4.865 -0.551,1.416 -1.465,2.762 -2.742,4.039 -1.396,1.396 -3.022,2.477 -4.88,3.244 -1.857,0.766 -3.808,1.148 -5.853,1.148 -2.044,0 -4,-0.383 -5.867,-1.148 -1.867,-0.768 -3.498,-1.848 -4.894,-3.244 -1.278,-1.277 -2.192,-2.623 -2.742,-4.039 -0.551,-1.414 -0.895,-3.037 -1.032,-4.865 -0.137,-1.828 -0.206,-4.678 -0.206,-8.549 0,-3.873 0.068,-6.723 0.206,-8.551 0.138,-1.828 0.481,-3.449 1.032,-4.865 0.55,-1.414 1.464,-2.76 2.742,-4.039 1.396,-1.395 3.021,-2.477 4.879,-3.242 1.857,-0.768 3.818,-1.15 5.882,-1.15 2.064,0 4.02,0.383 5.867,1.15 1.848,0.766 3.47,1.848 4.865,3.242 1.277,1.279 2.191,2.625 2.742,4.039 0.55,1.416 0.894,3.037 1.031,4.865 0.137,1.828 0.208,4.678 0.208,8.551 z m -3.274,0 c 0,-3.4 -0.068,-5.996 -0.206,-7.783 -0.137,-1.789 -0.441,-3.299 -0.912,-4.527 -0.472,-1.227 -1.208,-2.344 -2.209,-3.346 -1.099,-1.1 -2.341,-1.926 -3.725,-2.477 -1.384,-0.551 -2.852,-0.826 -4.402,-0.826 -1.531,0 -2.999,0.275 -4.402,0.826 -1.403,0.551 -2.654,1.377 -3.754,2.477 -0.766,0.768 -1.359,1.563 -1.781,2.389 -0.422,0.824 -0.751,1.867 -0.986,3.125 -0.235,1.258 -0.383,2.693 -0.441,4.305 -0.06,1.611 -0.089,3.557 -0.089,5.838 0,3.4 0.069,5.99 0.206,7.768 0.138,1.779 0.441,3.287 0.913,4.525 0.471,1.238 1.197,2.35 2.179,3.332 1.08,1.082 2.326,1.908 3.739,2.477 1.414,0.57 2.886,0.855 4.417,0.855 1.551,0 3.023,-0.285 4.417,-0.855 1.394,-0.568 2.63,-1.395 3.71,-2.477 1.021,-1.021 1.762,-2.143 2.224,-3.361 0.461,-1.217 0.761,-2.717 0.897,-4.496 0.137,-1.778 0.205,-4.368 0.205,-7.769 z" />
          <path
             style="fill:#55b8e3"
             inkscape:connector-curvature="0"
             id="path155"
             d="m 509.273,838.803 c 0,3.756 -1.131,6.646 -3.391,8.672 -2.261,2.027 -5.336,3.039 -9.229,3.039 l -16.304,0 0,-42.986 15.832,0 c 2.418,0 4.565,0.447 6.442,1.342 1.877,0.893 3.347,2.193 4.408,3.904 1.061,1.709 1.592,3.701 1.592,5.98 0,2.258 -0.6,4.252 -1.799,5.98 -1.199,1.728 -2.84,2.947 -4.924,3.654 2.359,0.807 4.177,2.119 5.455,3.939 1.28,1.819 1.918,3.978 1.918,6.476 z m -3.92,-20.041 c 0,-1.889 -0.418,-3.455 -1.253,-4.703 -0.836,-1.248 -1.971,-2.168 -3.405,-2.758 -1.436,-0.59 -3.057,-0.883 -4.865,-0.883 l -12.206,0 0,16.656 12.206,0 c 2.791,0 5.076,-0.691 6.854,-2.078 1.779,-1.385 2.669,-3.465 2.669,-6.234 z m 0.648,20.033 c 0,-1.83 -0.397,-3.406 -1.192,-4.725 -0.796,-1.32 -1.919,-2.334 -3.372,-3.043 -1.452,-0.709 -3.17,-1.063 -5.152,-1.063 l -12.661,0 0,17.66 12.661,0 c 1.982,0 3.7,-0.354 5.152,-1.063 1.453,-0.709 2.576,-1.729 3.372,-3.057 0.795,-1.328 1.192,-2.899 1.192,-4.709 z" />
          <path
             style="fill:#55b8e3"
             inkscape:connector-curvature="0"
             id="path157"
             d="m 546.218,829.021 c 0,3.871 -0.069,6.721 -0.207,8.549 -0.138,1.828 -0.481,3.451 -1.031,4.865 -0.551,1.416 -1.465,2.762 -2.742,4.039 -1.396,1.396 -3.022,2.477 -4.88,3.244 -1.857,0.766 -3.808,1.148 -5.853,1.148 -2.044,0 -4,-0.383 -5.867,-1.148 -1.867,-0.768 -3.498,-1.848 -4.894,-3.244 -1.278,-1.277 -2.192,-2.623 -2.742,-4.039 -0.551,-1.414 -0.895,-3.037 -1.032,-4.865 -0.137,-1.828 -0.206,-4.678 -0.206,-8.549 0,-3.873 0.068,-6.723 0.206,-8.551 0.138,-1.828 0.481,-3.449 1.032,-4.865 0.55,-1.414 1.464,-2.76 2.742,-4.039 1.396,-1.395 3.021,-2.477 4.879,-3.242 1.857,-0.768 3.818,-1.15 5.882,-1.15 2.064,0 4.02,0.383 5.867,1.15 1.848,0.766 3.47,1.848 4.865,3.242 1.277,1.279 2.191,2.625 2.742,4.039 0.55,1.416 0.894,3.037 1.031,4.865 0.137,1.828 0.208,4.678 0.208,8.551 z m -3.274,0 c 0,-3.4 -0.068,-5.996 -0.206,-7.783 -0.137,-1.789 -0.441,-3.299 -0.912,-4.527 -0.472,-1.227 -1.208,-2.344 -2.209,-3.346 -1.099,-1.1 -2.341,-1.926 -3.725,-2.477 -1.384,-0.551 -2.852,-0.826 -4.402,-0.826 -1.531,0 -2.999,0.275 -4.402,0.826 -1.403,0.551 -2.654,1.377 -3.754,2.477 -0.766,0.768 -1.359,1.563 -1.781,2.389 -0.422,0.824 -0.751,1.867 -0.986,3.125 -0.235,1.258 -0.383,2.693 -0.441,4.305 -0.06,1.611 -0.089,3.557 -0.089,5.838 0,3.4 0.069,5.99 0.206,7.768 0.138,1.779 0.441,3.287 0.913,4.525 0.471,1.238 1.197,2.35 2.179,3.332 1.08,1.082 2.326,1.908 3.739,2.477 1.414,0.57 2.886,0.855 4.417,0.855 1.551,0 3.023,-0.285 4.417,-0.855 1.394,-0.568 2.63,-1.395 3.71,-2.477 1.021,-1.021 1.762,-2.143 2.224,-3.361 0.461,-1.217 0.761,-2.717 0.897,-4.496 0.137,-1.778 0.205,-4.368 0.205,-7.769 z" />
          <path
             style="fill:#55b8e3"
             inkscape:connector-curvature="0"
             id="path159"
             d="m 579.478,810.418 -12.855,0 0,40.096 -3.273,0 0,-40.096 -12.795,0 0,-2.891 28.923,0 0,2.891 z" />
          <path
             style="fill:#55b8e3"
             inkscape:connector-curvature="0"
             id="path161"
             d="m 588.796,850.514 -3.271,0 0,-42.986 3.271,0 0,42.986 z" />
          <path
             style="fill:#55b8e3"
             inkscape:connector-curvature="0"
             id="path163"
             d="m 624.828,845.502 c -1.887,1.789 -3.773,3.131 -5.66,4.025 -1.887,0.894 -4.039,1.34 -6.457,1.34 -2.045,0 -4,-0.383 -5.867,-1.148 -1.867,-0.768 -3.498,-1.848 -4.895,-3.244 -1.277,-1.277 -2.191,-2.623 -2.742,-4.039 -0.551,-1.414 -0.895,-3.037 -1.031,-4.865 -0.139,-1.828 -0.207,-4.678 -0.207,-8.549 0,-3.873 0.068,-6.723 0.207,-8.551 0.137,-1.828 0.48,-3.449 1.031,-4.865 0.551,-1.414 1.465,-2.76 2.742,-4.039 1.396,-1.395 3.021,-2.477 4.879,-3.242 1.857,-0.768 3.818,-1.15 5.883,-1.15 2.418,0 4.59,0.457 6.516,1.371 1.926,0.914 3.793,2.246 5.602,3.994 l -2.152,2.182 c -1.592,-1.592 -3.129,-2.766 -4.613,-3.521 -1.484,-0.758 -3.268,-1.137 -5.352,-1.137 -1.553,0 -3.037,0.281 -4.451,0.842 -1.416,0.559 -2.654,1.381 -3.715,2.461 -0.768,0.768 -1.361,1.563 -1.785,2.389 -0.422,0.824 -0.752,1.867 -0.986,3.125 -0.236,1.258 -0.385,2.693 -0.443,4.305 -0.058,1.612 -0.088,3.557 -0.088,5.838 0,3.4 0.068,5.99 0.207,7.768 0.137,1.779 0.441,3.287 0.912,4.525 0.473,1.238 1.199,2.35 2.184,3.332 1.041,1.063 2.273,1.883 3.699,2.463 1.426,0.58 2.914,0.869 4.467,0.869 1.375,0 2.648,-0.182 3.818,-0.545 1.168,-0.363 2.205,-0.871 3.109,-1.52 0.904,-0.649 1.918,-1.512 3.037,-2.594 l 2.151,2.18 z" />
          <path
             style="fill:#55b8e3"
             inkscape:connector-curvature="0"
             id="path165"
             d="m 658.47,838.986 c 0,1.77 -0.33,3.396 -0.988,4.879 -0.658,1.484 -1.611,2.742 -2.859,3.773 -1.248,1.033 -2.781,1.828 -4.6,2.389 -1.819,0.561 -3.828,0.84 -6.029,0.84 -2.045,0 -3.912,-0.195 -5.602,-0.59 -1.691,-0.393 -3.244,-1.012 -4.658,-1.857 -1.416,-0.844 -2.771,-1.916 -4.068,-3.213 l 2.299,-2.299 c 1.295,1.297 2.543,2.314 3.74,3.051 1.197,0.737 2.482,1.258 3.857,1.563 1.373,0.305 2.904,0.457 4.594,0.457 2.256,0 4.209,-0.35 5.859,-1.047 1.648,-0.697 2.924,-1.719 3.828,-3.066 0.902,-1.346 1.354,-2.934 1.354,-4.762 0,-2.633 -0.785,-4.648 -2.355,-6.043 -0.727,-0.629 -1.531,-1.105 -2.414,-1.43 -0.883,-0.325 -2.148,-0.615 -3.797,-0.871 l -5.006,-0.766 c -3.26,-0.492 -5.813,-1.543 -7.658,-3.154 -2.258,-1.887 -3.387,-4.521 -3.387,-7.902 0,-1.809 0.318,-3.443 0.957,-4.908 0.639,-1.465 1.527,-2.703 2.666,-3.715 1.139,-1.014 2.543,-1.789 4.213,-2.33 1.67,-0.541 3.506,-0.811 5.51,-0.811 2.611,0 4.861,0.369 6.746,1.105 1.885,0.736 3.762,1.912 5.627,3.523 l -2.131,2.123 c -1.512,-1.357 -3.039,-2.359 -4.578,-3.008 -1.541,-0.648 -3.49,-0.973 -5.846,-0.973 -3.102,0 -5.535,0.797 -7.301,2.389 -1.768,1.592 -2.65,3.754 -2.65,6.486 0,2.496 0.736,4.363 2.209,5.602 0.805,0.648 1.791,1.213 2.957,1.695 1.168,0.482 2.322,0.801 3.461,0.957 l 4.623,0.738 c 1.988,0.295 3.543,0.648 4.664,1.061 1.123,0.414 2.127,1.002 3.014,1.77 1.219,1.002 2.15,2.217 2.789,3.641 0.64,1.426 0.96,2.992 0.96,4.703 z" />
          <path
             style="fill:#355f70"
             inkscape:connector-curvature="0"
             id="path167"
             d="m 692.466,850.514 -27.271,0 0,-42.986 6.574,0 0,37.119 20.697,0 0,5.867 z" />
          <path
             style="fill:#355f70"
             inkscape:connector-curvature="0"
             id="path169"
             d="m 731.56,850.514 -6.951,0 -2.947,-8.639 -16.969,0 -2.945,8.639 -6.953,0 15.762,-42.986 5.244,0 15.759,42.986 z m -11.725,-14.182 -6.51,-19.074 -6.688,19.074 13.198,0 z" />
          <path
             style="fill:#355f70"
             inkscape:connector-curvature="0"
             id="path171"
             d="m 765.617,838.367 c 0,2.594 -0.547,4.801 -1.639,6.619 -1.092,1.818 -2.627,3.193 -4.604,4.127 -1.977,0.934 -4.234,1.4 -6.773,1.4 l -17.412,0 0,-42.986 16.764,0 c 2.598,0 4.885,0.477 6.861,1.43 1.977,0.955 3.492,2.32 4.545,4.1 1.053,1.777 1.58,3.857 1.58,6.234 0,1.475 -0.271,2.836 -0.813,4.084 -0.542,1.248 -1.252,2.299 -2.137,3.154 -0.885,0.855 -1.838,1.48 -2.859,1.873 1.848,0.707 3.391,1.916 4.629,3.625 1.239,1.711 1.858,3.825 1.858,6.34 z m -7.196,-18.824 c 0,-1.275 -0.289,-2.379 -0.869,-3.311 -0.58,-0.932 -1.396,-1.637 -2.447,-2.117 -1.051,-0.48 -2.285,-0.721 -3.699,-0.721 l -9.641,0 0,12.295 9.641,0 c 2.162,0 3.871,-0.539 5.129,-1.617 1.258,-1.078 1.886,-2.59 1.886,-4.529 z m 0.651,18.529 c 0,-1.316 -0.277,-2.457 -0.826,-3.42 -0.551,-0.963 -1.361,-1.721 -2.432,-2.27 -1.072,-0.551 -2.336,-0.826 -3.789,-0.826 l -10.26,0 0,13.09 10.26,0 c 1.475,0 2.742,-0.279 3.803,-0.84 1.061,-0.561 1.867,-1.332 2.418,-2.314 0.548,-0.982 0.826,-2.123 0.826,-3.42 z" />
        </g>
      </g>
      <g
         id="g173">
        <circle
           style="fill:#355f70"
           id="circle175"
           r="5.2449999"
           cy="810.84601"
           cx="668.64899" />
        <circle
           style="fill:#ffffff"
           id="circle177"
           r="2.895"
           cy="810.84601"
           cx="668.64801" />
      </g>
    </g>
    <g
       transform="matrix(0.19357087,0,0,-0.19357087,-8.8073004,1060.0847)"
       inkscape:label="roboticslab"
       id="g9516">
      <g
         id="g9518">
        <g
           clip-path="url(#clipPath9522)"
           id="g9520">
          <g
             transform="translate(366.1851,194.875)"
             id="g9526">
            <path
               inkscape:connector-curvature="0"
               id="path9528"
               style="fill:#55bae8;fill-opacity:1;fill-rule:nonzero;stroke:none"
               d="m 0,0 c 0,-85.593 -71.785,-154.98 -160.342,-154.98 -88.556,0 -160.344,69.387 -160.344,154.98 0,85.595 71.788,154.984 160.344,154.984 C -71.785,154.984 0,85.595 0,0" />
          </g>
          <g
             id="g9530">
            <g
               id="g9532" />
            <g
               id="g9538">
              <g
                 style="opacity:0.5"
                 id="g9540"
                 clip-path="url(#clipPath9534)">
                <path
                   inkscape:connector-curvature="0"
                   id="path9542"
                   style="fill:#2f99c2;fill-opacity:1;fill-rule:nonzero;stroke:none"
                   d="m 341.605,40.089 -274.545,0 0,256.95 274.545,0 0,-256.95 z" />
              </g>
            </g>
          </g>
          <g
             id="g9544">
            <g
               id="g9546" />
            <g
               id="g9552">
              <g
                 style="opacity:0.5"
                 id="g9554"
                 clip-path="url(#clipPath9548)">
                <g
                   id="g9556"
                   transform="translate(205.5898,297.1904)">
                  <path
                     inkscape:connector-curvature="0"
                     id="path9558"
                     style="fill:#436478;fill-opacity:1;fill-rule:nonzero;stroke:none"
                     d="m 0,0 c -15.081,0 -27.304,-12.389 -27.304,-27.672 0,-4.999 1.317,-9.686 3.606,-13.734 l 7.312,0 c -0.025,0.341 32.792,0.341 32.768,0 l 7.314,0 c 2.29,4.048 3.603,8.735 3.603,13.734 C 27.299,-12.389 15.078,0 0,0" />
                </g>
              </g>
            </g>
          </g>
          <g
             id="g9560">
            <g
               id="g9562" />
            <g
               id="g9568">
              <g
                 style="opacity:0.5"
                 id="g9570"
                 clip-path="url(#clipPath9564)">
                <g
                   id="g9572"
                   transform="translate(274.0229,68.2832)">
                  <path
                     inkscape:connector-curvature="0"
                     id="path9574"
                     style="fill:#538e98;fill-opacity:1;fill-rule:nonzero;stroke:none"
                     d="m 0,0 c 4.73,-6.498 14.215,-6.919 21.182,-0.938 6.966,5.983 8.781,16.099 4.047,22.599 L -28.937,94.76 c -4.733,6.498 -14.213,6.92 -21.178,0.936 -6.969,-5.983 -8.783,-16.098 -4.051,-22.597 L 0,0 Z" />
                </g>
              </g>
            </g>
          </g>
          <g
             transform="translate(243.3511,189.123)"
             id="g9576">
            <path
               inkscape:connector-curvature="0"
               id="path9578"
               style="fill:#ffffff;fill-opacity:1;fill-rule:nonzero;stroke:none"
               d="m 0,0 c 0,-7.455 -5.962,-13.497 -13.318,-13.497 l -46.728,0 c -7.356,0 -13.32,6.042 -13.32,13.497 l 0,48.42 c 0,7.456 5.964,13.5 13.32,13.5 l 46.728,0 C -5.962,61.92 0,55.876 0,48.42 L 0,0 Z" />
          </g>
          <g
             transform="translate(205.7861,296.2187)"
             id="g9580">
            <path
               inkscape:connector-curvature="0"
               id="path9582"
               style="fill:#ffffff;fill-opacity:1;fill-rule:nonzero;stroke:none"
               d="m 0,0 c -14.168,0 -25.655,-11.643 -25.655,-26.005 0,-4.699 1.237,-9.102 3.387,-12.908 l 6.872,0 c -0.022,0.321 -0.048,0.638 -0.048,0.966 l 0,5.673 c 0,7.077 5.662,12.817 12.646,12.817 l 5.599,0 c 6.986,0 12.646,-5.74 12.646,-12.817 l 0,-5.673 c 0,-0.328 -0.027,-0.645 -0.048,-0.966 l 6.868,0 c 2.155,3.806 3.393,8.209 3.393,12.908 C 25.66,-11.643 14.17,0 0,0" />
          </g>
          <g
             id="g9584">
            <g
               id="g9586" />
            <g
               id="g9592">
              <g
                 style="opacity:0.5"
                 id="g9594"
                 clip-path="url(#clipPath9588)">
                <g
                   id="g9596"
                   transform="translate(159.4297,249.1416)">
                  <path
                     inkscape:connector-curvature="0"
                     id="path9598"
                     style="fill:#538e98;fill-opacity:1;fill-rule:nonzero;stroke:none"
                     d="m 0,0 -61.119,41.988 -13.365,-20.61 61.124,-41.985 c 6.667,-4.467 15.064,-3.47 18.752,2.22 C 9.083,-12.693 6.669,-4.463 0,0" />
                </g>
                <g
                   id="g9600"
                   transform="translate(95.208,293.0137)">
                  <path
                     inkscape:connector-curvature="0"
                     id="path9602"
                     style="fill:#538e98;fill-opacity:1;fill-rule:nonzero;stroke:none"
                     d="m 0,0 c -6.278,3.107 -13.467,1.823 -16.808,-3.332 -3.339,-5.148 -1.666,-12.372 3.62,-17.009 L 0,0 Z" />
                </g>
              </g>
            </g>
          </g>
          <g
             id="g9604">
            <g
               id="g9606" />
            <g
               id="g9612">
              <g
                 style="opacity:0.5"
                 id="g9614"
                 clip-path="url(#clipPath9608)">
                <g
                   id="g9616"
                   transform="translate(252.6802,250.0469)">
                  <path
                     inkscape:connector-curvature="0"
                     id="path9618"
                     style="fill:#538e98;fill-opacity:1;fill-rule:nonzero;stroke:none"
                     d="M 0,0 58.884,40.432 71.616,19.353 12.728,-21.078 C 6.306,-25.376 -1.751,-24.138 -5.265,-18.315 -8.779,-12.493 -6.423,-4.295 0,0" />
                </g>
                <g
                   id="g9620"
                   transform="translate(314.5513,292.2852)">
                  <path
                     inkscape:connector-curvature="0"
                     id="path9622"
                     style="fill:#538e98;fill-opacity:1;fill-rule:nonzero;stroke:none"
                     d="m 0,0 c 6.044,2.94 12.938,1.446 16.122,-3.826 3.183,-5.266 1.541,-12.475 -3.558,-16.981 L 0,0 Z" />
                </g>
              </g>
            </g>
          </g>
          <g
             transform="translate(263.1626,224.9004)"
             id="g9624">
            <path
               inkscape:connector-curvature="0"
               id="path9626"
               style="fill:#ffffff;fill-opacity:1;fill-rule:nonzero;stroke:none"
               d="m 0,0 60.436,0 0,24.708 -60.436,0 c -9.074,0 -16.431,-5.532 -16.431,-12.355 C -16.431,5.531 -9.074,0 0,0" />
          </g>
          <g
             transform="translate(327.7017,225.0625)"
             id="g9628">
            <path
               inkscape:connector-curvature="0"
               id="path9630"
               style="fill:#ffffff;fill-opacity:1;fill-rule:nonzero;stroke:none"
               d="M 0,0 C 7.87,0.916 13.903,6.019 13.903,12.19 13.903,18.365 7.87,23.467 0,24.385 L 0,0 Z" />
          </g>
          <g
             transform="translate(220.3384,137.251)"
             id="g9632">
            <path
               inkscape:connector-curvature="0"
               id="path9634"
               style="fill:#ffffff;fill-opacity:1;fill-rule:nonzero;stroke:none"
               d="m 0,0 -3.992,0 0,-78.399 c 0,-9.334 7.466,-16.904 16.677,-16.904 l 0.152,0 c 9.21,0 16.679,7.57 16.679,16.904 l 0,92.477 c 0,9.334 -7.469,16.901 -16.679,16.901 l -0.152,0 c -0.723,0 -1.434,-0.046 -2.134,-0.139 C 9.86,30.754 11.246,7.622 10.571,7.446 9.542,-0.147 0,0 0,0" />
          </g>
          <g
             transform="translate(213.6987,151.3848)"
             id="g9636">
            <path
               inkscape:connector-curvature="0"
               id="path9638"
               style="fill:#ffffff;fill-opacity:1;fill-rule:nonzero;stroke:none"
               d="m 0,0 c 0,-3.717 2.973,-6.729 6.64,-6.729 3.665,0 6.637,3.012 6.637,6.729 l 0,11.536 c 0,3.713 -2.972,6.728 -6.637,6.728 C 2.973,18.264 0,15.249 0,11.536 L 0,0 Z" />
          </g>
          <g
             id="g9640">
            <g
               id="g9642" />
            <g
               id="g9648">
              <g
                 style="opacity:0.5"
                 id="g9650"
                 clip-path="url(#clipPath9644)">
                <g
                   id="g9652"
                   transform="translate(137.9087,69.2998)">
                  <path
                     inkscape:connector-curvature="0"
                     id="path9654"
                     style="fill:#538e98;fill-opacity:1;fill-rule:nonzero;stroke:none"
                     d="m 0,0 c -5.101,-6.502 -15.071,-7.076 -22.266,-1.278 -7.197,5.797 -8.896,15.769 -3.793,22.274 l 58.372,73.17 c 5.097,6.503 15.067,7.08 22.263,1.281 7.196,-5.8 8.895,-15.771 3.793,-22.275 L 0,0 Z" />
                </g>
              </g>
            </g>
          </g>
          <g
             transform="translate(193.3447,137.251)"
             id="g9656">
            <path
               inkscape:connector-curvature="0"
               id="path9658"
               style="fill:#ffffff;fill-opacity:1;fill-rule:nonzero;stroke:none"
               d="m 0,0 3.993,0 0,-78.399 c 0,-9.334 -7.467,-16.904 -16.678,-16.904 l -0.151,0 c -9.21,0 -16.68,7.57 -16.68,16.904 l 0,92.477 c 0,9.334 7.47,16.901 16.68,16.901 l 0.151,0 c 0.724,0 1.435,-0.046 2.132,-0.139 C -9.861,30.754 -11.246,7.622 -10.57,7.446 -9.542,-0.147 0,0 0,0" />
          </g>
          <g
             transform="translate(199.9844,151.3848)"
             id="g9660">
            <path
               inkscape:connector-curvature="0"
               id="path9662"
               style="fill:#ffffff;fill-opacity:1;fill-rule:nonzero;stroke:none"
               d="m 0,0 c 0,-3.717 -2.974,-6.729 -6.64,-6.729 -3.666,0 -6.637,3.012 -6.637,6.729 l 0,11.536 c 0,3.713 2.971,6.728 6.637,6.728 3.666,0 6.64,-3.015 6.64,-6.728 L 0,0 Z" />
          </g>
          <g
             transform="translate(148.686,250.583)"
             id="g9664">
            <path
               inkscape:connector-curvature="0"
               id="path9666"
               style="fill:#ffffff;fill-opacity:1;fill-rule:nonzero;stroke:none"
               d="m 0,0 -62.891,0 0,-24.708 62.891,0 c 9.441,0 17.092,5.531 17.092,12.357 C 17.092,-5.532 9.441,0 0,0" />
          </g>
          <g
             transform="translate(81.5273,250.4219)"
             id="g9668">
            <path
               inkscape:connector-curvature="0"
               id="path9670"
               style="fill:#ffffff;fill-opacity:1;fill-rule:nonzero;stroke:none"
               d="m 0,0 c -8.19,-0.918 -14.467,-6.02 -14.467,-12.189 0,-6.177 6.277,-11.28 14.467,-12.196 L 0,0 Z" />
          </g>
        </g>
      </g>
    </g>
  </g>
</svg>
