<?xml version="1.0" encoding="UTF-8" standalone="no"?>
<!-- Generator: Adobe Illustrator 14.0.0, SVG Export Plug-In . SVG Version: 6.00 Build 43363)  -->

<svg
   xmlns:ns="&amp;ns_sfw;"
   xmlns:dc="http://purl.org/dc/elements/1.1/"
   xmlns:cc="http://creativecommons.org/ns#"
   xmlns:rdf="http://www.w3.org/1999/02/22-rdf-syntax-ns#"
   xmlns:svg="http://www.w3.org/2000/svg"
   xmlns="http://www.w3.org/2000/svg"
   xmlns:sodipodi="http://sodipodi.sourceforge.net/DTD/sodipodi-0.dtd"
   xmlns:inkscape="http://www.inkscape.org/namespaces/inkscape"
   version="1.1"
   id="Capa_1"
   x="0px"
   y="0px"
   width="1046.948px"
   height="1088.945px"
   viewBox="0 0 1046.948 1088.945"
   enable-background="new 0 0 1046.948 1088.945"
   xml:space="preserve"
   inkscape:version="0.48.4 r9939"
   sodipodi:docname="logo_RL_horizontal.svg"><defs
     id="defs181" /><sodipodi:namedview
     pagecolor="#ffffff"
     bordercolor="#666666"
     borderopacity="1"
     objecttolerance="10"
     gridtolerance="10"
     guidetolerance="10"
     inkscape:pageopacity="0"
     inkscape:pageshadow="2"
     inkscape:window-width="1215"
     inkscape:window-height="776"
     id="namedview179"
     showgrid="false"
     inkscape:zoom="0.21672354"
     inkscape:cx="523.474"
     inkscape:cy="544.47247"
     inkscape:window-x="65"
     inkscape:window-y="24"
     inkscape:window-maximized="1"
     inkscape:current-layer="Capa_1" /><metadata
     id="metadata3"><ns:sfw><ns:slices /><ns:sliceSourceBounds
         height="879.376"
         width="1046.948"
         x="-596.364"
         y="73.01"
         bottomLeftOrigin="true" /></ns:sfw><rdf:RDF><cc:Work
         rdf:about=""><dc:format>image/svg+xml</dc:format><dc:type
           rdf:resource="http://purl.org/dc/dcmitype/StillImage" /></cc:Work></rdf:RDF></metadata><rect
     fill="#55B9E3"
     width="1046.948"
     height="544.473"
     id="rect5" /><g
     id="g59"><g
       id="g61"><g
         id="g63"><path
           fill="#FFFFFF"
           d="M435.295,306.041h-3.804l-10.26-19.813h-11.823v19.813h-3.272v-42.986h16.363     c2.378,0,4.496,0.447,6.354,1.342s3.316,2.211,4.378,3.951c1.062,1.738,1.593,3.818,1.593,6.234c0,3.146-0.88,5.73-2.64,7.756     c-1.759,2.023-4.182,3.301-7.268,3.832L435.295,306.041z M431.55,274.643c0-2.85-0.859-5.014-2.579-6.486     c-1.721-1.475-4.015-2.211-6.885-2.211h-12.678v17.395h12.678c1.396,0,2.673-0.182,3.833-0.545     c1.159-0.365,2.152-0.9,2.978-1.607c0.826-0.707,1.475-1.611,1.946-2.713C431.314,277.375,431.55,276.098,431.55,274.643z"
           id="path65" /><path
           fill="#FFFFFF"
           d="M471.179,284.549c0,3.871-0.069,6.721-0.207,8.549s-0.481,3.451-1.031,4.865     c-0.551,1.416-1.465,2.762-2.742,4.039c-1.396,1.396-3.022,2.477-4.88,3.244c-1.857,0.766-3.808,1.148-5.853,1.148     c-2.044,0-4-0.383-5.867-1.148c-1.867-0.768-3.498-1.848-4.894-3.244c-1.278-1.277-2.192-2.623-2.742-4.039     c-0.551-1.414-0.895-3.037-1.032-4.865s-0.206-4.678-0.206-8.549c0-3.873,0.068-6.723,0.206-8.551s0.481-3.449,1.032-4.865     c0.55-1.414,1.464-2.76,2.742-4.039c1.396-1.395,3.021-2.477,4.879-3.242c1.857-0.768,3.818-1.15,5.882-1.15     c2.064,0,4.02,0.383,5.867,1.15c1.848,0.766,3.47,1.848,4.865,3.242c1.277,1.279,2.191,2.625,2.742,4.039     c0.55,1.416,0.894,3.037,1.031,4.865S471.179,280.676,471.179,284.549z M467.905,284.549c0-3.4-0.068-5.996-0.206-7.783     c-0.137-1.789-0.441-3.299-0.912-4.527c-0.472-1.227-1.208-2.344-2.209-3.346c-1.099-1.1-2.341-1.926-3.725-2.477     s-2.852-0.826-4.402-0.826c-1.531,0-2.999,0.275-4.402,0.826s-2.654,1.377-3.754,2.477c-0.766,0.768-1.359,1.563-1.781,2.389     c-0.422,0.824-0.751,1.867-0.986,3.125s-0.383,2.693-0.441,4.305c-0.06,1.611-0.089,3.557-0.089,5.838     c0,3.4,0.069,5.99,0.206,7.768c0.138,1.779,0.441,3.287,0.913,4.525c0.471,1.238,1.197,2.35,2.179,3.332     c1.08,1.082,2.326,1.908,3.739,2.477c1.414,0.57,2.886,0.855,4.417,0.855c1.551,0,3.023-0.285,4.417-0.855     c1.394-0.568,2.63-1.395,3.71-2.477c1.021-1.021,1.762-2.143,2.224-3.361c0.461-1.217,0.761-2.717,0.897-4.496     C467.837,290.539,467.905,287.949,467.905,284.549z"
           id="path67" /><path
           fill="#FFFFFF"
           d="M509.273,294.33c0,3.756-1.131,6.646-3.391,8.672c-2.261,2.027-5.336,3.039-9.229,3.039h-16.304v-42.986     h15.832c2.418,0,4.565,0.447,6.442,1.342c1.877,0.893,3.347,2.193,4.408,3.904c1.061,1.709,1.592,3.701,1.592,5.98     c0,2.258-0.6,4.252-1.799,5.98s-2.84,2.947-4.924,3.654c2.359,0.807,4.177,2.119,5.455,3.939     C508.635,289.674,509.273,291.832,509.273,294.33z M505.353,274.289c0-1.889-0.418-3.455-1.253-4.703     c-0.836-1.248-1.971-2.168-3.405-2.758c-1.436-0.59-3.057-0.883-4.865-0.883h-12.206v16.656h12.206     c2.791,0,5.076-0.691,6.854-2.078C504.463,279.139,505.353,277.059,505.353,274.289z M506.001,294.322     c0-1.83-0.397-3.406-1.192-4.725c-0.796-1.32-1.919-2.334-3.372-3.043c-1.452-0.709-3.17-1.063-5.152-1.063h-12.661v17.66h12.661     c1.982,0,3.7-0.354,5.152-1.063c1.453-0.709,2.576-1.729,3.372-3.057C505.604,297.703,506.001,296.133,506.001,294.322z"
           id="path69" /><path
           fill="#FFFFFF"
           d="M546.218,284.549c0,3.871-0.069,6.721-0.207,8.549s-0.481,3.451-1.031,4.865     c-0.551,1.416-1.465,2.762-2.742,4.039c-1.396,1.396-3.022,2.477-4.88,3.244c-1.857,0.766-3.808,1.148-5.853,1.148     c-2.044,0-4-0.383-5.867-1.148c-1.867-0.768-3.498-1.848-4.894-3.244c-1.278-1.277-2.192-2.623-2.742-4.039     c-0.551-1.414-0.895-3.037-1.032-4.865s-0.206-4.678-0.206-8.549c0-3.873,0.068-6.723,0.206-8.551s0.481-3.449,1.032-4.865     c0.55-1.414,1.464-2.76,2.742-4.039c1.396-1.395,3.021-2.477,4.879-3.242c1.857-0.768,3.818-1.15,5.882-1.15     c2.064,0,4.02,0.383,5.867,1.15c1.848,0.766,3.47,1.848,4.865,3.242c1.277,1.279,2.191,2.625,2.742,4.039     c0.55,1.416,0.894,3.037,1.031,4.865S546.218,280.676,546.218,284.549z M542.944,284.549c0-3.4-0.068-5.996-0.206-7.783     c-0.137-1.789-0.441-3.299-0.912-4.527c-0.472-1.227-1.208-2.344-2.209-3.346c-1.099-1.1-2.341-1.926-3.725-2.477     s-2.852-0.826-4.402-0.826c-1.531,0-2.999,0.275-4.402,0.826s-2.654,1.377-3.754,2.477c-0.766,0.768-1.359,1.563-1.781,2.389     c-0.422,0.824-0.751,1.867-0.986,3.125s-0.383,2.693-0.441,4.305c-0.06,1.611-0.089,3.557-0.089,5.838     c0,3.4,0.069,5.99,0.206,7.768c0.138,1.779,0.441,3.287,0.913,4.525c0.471,1.238,1.197,2.35,2.179,3.332     c1.08,1.082,2.326,1.908,3.739,2.477c1.414,0.57,2.886,0.855,4.417,0.855c1.551,0,3.023-0.285,4.417-0.855     c1.394-0.568,2.63-1.395,3.71-2.477c1.021-1.021,1.762-2.143,2.224-3.361c0.461-1.217,0.761-2.717,0.897-4.496     C542.876,290.539,542.944,287.949,542.944,284.549z"
           id="path71" /><path
           fill="#FFFFFF"
           d="M579.478,265.945h-12.855v40.096h-3.273v-40.096h-12.795v-2.891h28.923V265.945z"
           id="path73" /><path
           fill="#FFFFFF"
           d="M588.796,306.041h-3.271v-42.986h3.271V306.041z"
           id="path75" /><path
           fill="#FFFFFF"
           d="M624.828,301.029c-1.887,1.789-3.773,3.131-5.66,4.025s-4.039,1.34-6.457,1.34     c-2.045,0-4-0.383-5.867-1.148c-1.867-0.768-3.498-1.848-4.895-3.244c-1.277-1.277-2.191-2.623-2.742-4.039     c-0.551-1.414-0.895-3.037-1.031-4.865c-0.139-1.828-0.207-4.678-0.207-8.549c0-3.873,0.068-6.723,0.207-8.551     c0.137-1.828,0.48-3.449,1.031-4.865c0.551-1.414,1.465-2.76,2.742-4.039c1.396-1.395,3.021-2.477,4.879-3.242     c1.857-0.768,3.818-1.15,5.883-1.15c2.418,0,4.59,0.457,6.516,1.371s3.793,2.246,5.602,3.994l-2.152,2.182     c-1.592-1.592-3.129-2.766-4.613-3.521c-1.484-0.758-3.268-1.137-5.352-1.137c-1.553,0-3.037,0.281-4.451,0.842     c-1.416,0.559-2.654,1.381-3.715,2.461c-0.768,0.768-1.361,1.563-1.785,2.389c-0.422,0.824-0.752,1.867-0.986,3.125     c-0.236,1.258-0.385,2.693-0.443,4.305s-0.088,3.557-0.088,5.838c0,3.4,0.068,5.99,0.207,7.768     c0.137,1.779,0.441,3.287,0.912,4.525c0.473,1.238,1.199,2.35,2.184,3.332c1.041,1.063,2.273,1.883,3.699,2.463     s2.914,0.869,4.467,0.869c1.375,0,2.648-0.182,3.818-0.545c1.168-0.363,2.205-0.871,3.109-1.52s1.918-1.512,3.037-2.594     L624.828,301.029z"
           id="path77" /><path
           fill="#FFFFFF"
           d="M658.47,294.514c0,1.77-0.33,3.396-0.988,4.879c-0.658,1.484-1.611,2.742-2.859,3.773     c-1.248,1.033-2.781,1.828-4.6,2.389s-3.828,0.84-6.029,0.84c-2.045,0-3.912-0.195-5.602-0.59     c-1.691-0.393-3.244-1.012-4.658-1.857c-1.416-0.844-2.771-1.916-4.068-3.213l2.299-2.299c1.295,1.297,2.543,2.314,3.74,3.051     s2.482,1.258,3.857,1.563c1.373,0.305,2.904,0.457,4.594,0.457c2.256,0,4.209-0.35,5.859-1.047     c1.648-0.697,2.924-1.719,3.828-3.066c0.902-1.346,1.354-2.934,1.354-4.762c0-2.633-0.785-4.648-2.355-6.043     c-0.727-0.629-1.531-1.105-2.414-1.43s-2.148-0.615-3.797-0.871l-5.006-0.766c-3.26-0.492-5.813-1.543-7.658-3.154     c-2.258-1.887-3.387-4.521-3.387-7.902c0-1.809,0.318-3.443,0.957-4.908s1.527-2.703,2.666-3.715     c1.139-1.014,2.543-1.789,4.213-2.33s3.506-0.811,5.51-0.811c2.611,0,4.861,0.369,6.746,1.105s3.762,1.912,5.627,3.523     l-2.131,2.123c-1.512-1.357-3.039-2.359-4.578-3.008c-1.541-0.648-3.49-0.973-5.846-0.973c-3.102,0-5.535,0.797-7.301,2.389     c-1.768,1.592-2.65,3.754-2.65,6.486c0,2.496,0.736,4.363,2.209,5.602c0.805,0.648,1.791,1.213,2.957,1.695     c1.168,0.482,2.322,0.801,3.461,0.957l4.623,0.738c1.988,0.295,3.543,0.648,4.664,1.061c1.123,0.414,2.127,1.002,3.014,1.77     c1.219,1.002,2.15,2.217,2.789,3.641C658.15,291.236,658.47,292.803,658.47,294.514z"
           id="path79" /><path
           fill="#355F70"
           d="M692.466,306.041h-27.271v-42.986h6.574v37.119h20.697V306.041z"
           id="path81" /><path
           fill="#355F70"
           d="M731.56,306.041h-6.951l-2.947-8.639h-16.969l-2.945,8.639h-6.953l15.762-42.986h5.244L731.56,306.041z      M719.835,291.859l-6.51-19.074l-6.688,19.074H719.835z"
           id="path83" /><path
           fill="#355F70"
           d="M765.617,293.895c0,2.594-0.547,4.801-1.639,6.619s-2.627,3.193-4.604,4.127s-4.234,1.4-6.773,1.4     h-17.412v-42.986h16.764c2.598,0,4.885,0.477,6.861,1.43c1.977,0.955,3.492,2.32,4.545,4.1c1.053,1.777,1.58,3.857,1.58,6.234     c0,1.475-0.271,2.836-0.813,4.084s-1.252,2.299-2.137,3.154s-1.838,1.48-2.859,1.873c1.848,0.707,3.391,1.916,4.629,3.625     C764.998,289.266,765.617,291.379,765.617,293.895z M758.421,275.07c0-1.275-0.289-2.379-0.869-3.311s-1.396-1.637-2.447-2.117     s-2.285-0.721-3.699-0.721h-9.641v12.295h9.641c2.162,0,3.871-0.539,5.129-1.617S758.421,277.01,758.421,275.07z M759.072,293.6     c0-1.316-0.277-2.457-0.826-3.42c-0.551-0.963-1.361-1.721-2.432-2.27c-1.072-0.551-2.336-0.826-3.789-0.826h-10.26v13.09h10.26     c1.475,0,2.742-0.279,3.803-0.84s1.867-1.332,2.418-2.314C758.794,296.037,759.072,294.896,759.072,293.6z"
           id="path85" /></g></g><g
       id="g87"><circle
         fill="#355F70"
         cx="668.649"
         cy="266.373"
         r="5.245"
         id="circle89" /><circle
         fill="#FFFFFF"
         cx="668.648"
         cy="266.373"
         r="2.895"
         id="circle91" /></g></g><g
     id="g145"><g
       id="g147"><g
         id="g149"><path
           fill="#55B8E3"
           d="M435.295,850.514h-3.804l-10.26-19.813h-11.823v19.813h-3.272v-42.986h16.363     c2.378,0,4.496,0.447,6.354,1.342s3.316,2.211,4.378,3.951c1.062,1.738,1.593,3.818,1.593,6.234c0,3.146-0.88,5.73-2.64,7.756     c-1.759,2.023-4.182,3.301-7.268,3.832L435.295,850.514z M431.55,819.115c0-2.85-0.859-5.014-2.579-6.486     c-1.721-1.475-4.015-2.211-6.885-2.211h-12.678v17.395h12.678c1.396,0,2.673-0.182,3.833-0.545     c1.159-0.365,2.152-0.9,2.978-1.607c0.826-0.707,1.475-1.611,1.946-2.713C431.314,821.848,431.55,820.57,431.55,819.115z"
           id="path151" /><path
           fill="#55B8E3"
           d="M471.179,829.021c0,3.871-0.069,6.721-0.207,8.549s-0.481,3.451-1.031,4.865     c-0.551,1.416-1.465,2.762-2.742,4.039c-1.396,1.396-3.022,2.477-4.88,3.244c-1.857,0.766-3.808,1.148-5.853,1.148     c-2.044,0-4-0.383-5.867-1.148c-1.867-0.768-3.498-1.848-4.894-3.244c-1.278-1.277-2.192-2.623-2.742-4.039     c-0.551-1.414-0.895-3.037-1.032-4.865s-0.206-4.678-0.206-8.549c0-3.873,0.068-6.723,0.206-8.551s0.481-3.449,1.032-4.865     c0.55-1.414,1.464-2.76,2.742-4.039c1.396-1.395,3.021-2.477,4.879-3.242c1.857-0.768,3.818-1.15,5.882-1.15     c2.064,0,4.02,0.383,5.867,1.15c1.848,0.766,3.47,1.848,4.865,3.242c1.277,1.279,2.191,2.625,2.742,4.039     c0.55,1.416,0.894,3.037,1.031,4.865S471.179,825.148,471.179,829.021z M467.905,829.021c0-3.4-0.068-5.996-0.206-7.783     c-0.137-1.789-0.441-3.299-0.912-4.527c-0.472-1.227-1.208-2.344-2.209-3.346c-1.099-1.1-2.341-1.926-3.725-2.477     s-2.852-0.826-4.402-0.826c-1.531,0-2.999,0.275-4.402,0.826s-2.654,1.377-3.754,2.477c-0.766,0.768-1.359,1.563-1.781,2.389     c-0.422,0.824-0.751,1.867-0.986,3.125s-0.383,2.693-0.441,4.305c-0.06,1.611-0.089,3.557-0.089,5.838     c0,3.4,0.069,5.99,0.206,7.768c0.138,1.779,0.441,3.287,0.913,4.525c0.471,1.238,1.197,2.35,2.179,3.332     c1.08,1.082,2.326,1.908,3.739,2.477c1.414,0.57,2.886,0.855,4.417,0.855c1.551,0,3.023-0.285,4.417-0.855     c1.394-0.568,2.63-1.395,3.71-2.477c1.021-1.021,1.762-2.143,2.224-3.361c0.461-1.217,0.761-2.717,0.897-4.496     C467.837,835.012,467.905,832.422,467.905,829.021z"
           id="path153" /><path
           fill="#55B8E3"
           d="M509.273,838.803c0,3.756-1.131,6.646-3.391,8.672c-2.261,2.027-5.336,3.039-9.229,3.039h-16.304v-42.986     h15.832c2.418,0,4.565,0.447,6.442,1.342c1.877,0.893,3.347,2.193,4.408,3.904c1.061,1.709,1.592,3.701,1.592,5.98     c0,2.258-0.6,4.252-1.799,5.98s-2.84,2.947-4.924,3.654c2.359,0.807,4.177,2.119,5.455,3.939     C508.635,834.146,509.273,836.305,509.273,838.803z M505.353,818.762c0-1.889-0.418-3.455-1.253-4.703     c-0.836-1.248-1.971-2.168-3.405-2.758c-1.436-0.59-3.057-0.883-4.865-0.883h-12.206v16.656h12.206     c2.791,0,5.076-0.691,6.854-2.078C504.463,823.611,505.353,821.531,505.353,818.762z M506.001,838.795     c0-1.83-0.397-3.406-1.192-4.725c-0.796-1.32-1.919-2.334-3.372-3.043c-1.452-0.709-3.17-1.063-5.152-1.063h-12.661v17.66h12.661     c1.982,0,3.7-0.354,5.152-1.063c1.453-0.709,2.576-1.729,3.372-3.057C505.604,842.176,506.001,840.605,506.001,838.795z"
           id="path155" /><path
           fill="#55B8E3"
           d="M546.218,829.021c0,3.871-0.069,6.721-0.207,8.549s-0.481,3.451-1.031,4.865     c-0.551,1.416-1.465,2.762-2.742,4.039c-1.396,1.396-3.022,2.477-4.88,3.244c-1.857,0.766-3.808,1.148-5.853,1.148     c-2.044,0-4-0.383-5.867-1.148c-1.867-0.768-3.498-1.848-4.894-3.244c-1.278-1.277-2.192-2.623-2.742-4.039     c-0.551-1.414-0.895-3.037-1.032-4.865s-0.206-4.678-0.206-8.549c0-3.873,0.068-6.723,0.206-8.551s0.481-3.449,1.032-4.865     c0.55-1.414,1.464-2.76,2.742-4.039c1.396-1.395,3.021-2.477,4.879-3.242c1.857-0.768,3.818-1.15,5.882-1.15     c2.064,0,4.02,0.383,5.867,1.15c1.848,0.766,3.47,1.848,4.865,3.242c1.277,1.279,2.191,2.625,2.742,4.039     c0.55,1.416,0.894,3.037,1.031,4.865S546.218,825.148,546.218,829.021z M542.944,829.021c0-3.4-0.068-5.996-0.206-7.783     c-0.137-1.789-0.441-3.299-0.912-4.527c-0.472-1.227-1.208-2.344-2.209-3.346c-1.099-1.1-2.341-1.926-3.725-2.477     s-2.852-0.826-4.402-0.826c-1.531,0-2.999,0.275-4.402,0.826s-2.654,1.377-3.754,2.477c-0.766,0.768-1.359,1.563-1.781,2.389     c-0.422,0.824-0.751,1.867-0.986,3.125s-0.383,2.693-0.441,4.305c-0.06,1.611-0.089,3.557-0.089,5.838     c0,3.4,0.069,5.99,0.206,7.768c0.138,1.779,0.441,3.287,0.913,4.525c0.471,1.238,1.197,2.35,2.179,3.332     c1.08,1.082,2.326,1.908,3.739,2.477c1.414,0.57,2.886,0.855,4.417,0.855c1.551,0,3.023-0.285,4.417-0.855     c1.394-0.568,2.63-1.395,3.71-2.477c1.021-1.021,1.762-2.143,2.224-3.361c0.461-1.217,0.761-2.717,0.897-4.496     C542.876,835.012,542.944,832.422,542.944,829.021z"
           id="path157" /><path
           fill="#55B8E3"
           d="M579.478,810.418h-12.855v40.096h-3.273v-40.096h-12.795v-2.891h28.923V810.418z"
           id="path159" /><path
           fill="#55B8E3"
           d="M588.796,850.514h-3.271v-42.986h3.271V850.514z"
           id="path161" /><path
           fill="#55B8E3"
           d="M624.828,845.502c-1.887,1.789-3.773,3.131-5.66,4.025s-4.039,1.34-6.457,1.34     c-2.045,0-4-0.383-5.867-1.148c-1.867-0.768-3.498-1.848-4.895-3.244c-1.277-1.277-2.191-2.623-2.742-4.039     c-0.551-1.414-0.895-3.037-1.031-4.865c-0.139-1.828-0.207-4.678-0.207-8.549c0-3.873,0.068-6.723,0.207-8.551     c0.137-1.828,0.48-3.449,1.031-4.865c0.551-1.414,1.465-2.76,2.742-4.039c1.396-1.395,3.021-2.477,4.879-3.242     c1.857-0.768,3.818-1.15,5.883-1.15c2.418,0,4.59,0.457,6.516,1.371s3.793,2.246,5.602,3.994l-2.152,2.182     c-1.592-1.592-3.129-2.766-4.613-3.521c-1.484-0.758-3.268-1.137-5.352-1.137c-1.553,0-3.037,0.281-4.451,0.842     c-1.416,0.559-2.654,1.381-3.715,2.461c-0.768,0.768-1.361,1.563-1.785,2.389c-0.422,0.824-0.752,1.867-0.986,3.125     c-0.236,1.258-0.385,2.693-0.443,4.305s-0.088,3.557-0.088,5.838c0,3.4,0.068,5.99,0.207,7.768     c0.137,1.779,0.441,3.287,0.912,4.525c0.473,1.238,1.199,2.35,2.184,3.332c1.041,1.063,2.273,1.883,3.699,2.463     s2.914,0.869,4.467,0.869c1.375,0,2.648-0.182,3.818-0.545c1.168-0.363,2.205-0.871,3.109-1.52s1.918-1.512,3.037-2.594     L624.828,845.502z"
           id="path163" /><path
           fill="#55B8E3"
           d="M658.47,838.986c0,1.77-0.33,3.396-0.988,4.879c-0.658,1.484-1.611,2.742-2.859,3.773     c-1.248,1.033-2.781,1.828-4.6,2.389s-3.828,0.84-6.029,0.84c-2.045,0-3.912-0.195-5.602-0.59     c-1.691-0.393-3.244-1.012-4.658-1.857c-1.416-0.844-2.771-1.916-4.068-3.213l2.299-2.299c1.295,1.297,2.543,2.314,3.74,3.051     s2.482,1.258,3.857,1.563c1.373,0.305,2.904,0.457,4.594,0.457c2.256,0,4.209-0.35,5.859-1.047     c1.648-0.697,2.924-1.719,3.828-3.066c0.902-1.346,1.354-2.934,1.354-4.762c0-2.633-0.785-4.648-2.355-6.043     c-0.727-0.629-1.531-1.105-2.414-1.43s-2.148-0.615-3.797-0.871l-5.006-0.766c-3.26-0.492-5.813-1.543-7.658-3.154     c-2.258-1.887-3.387-4.521-3.387-7.902c0-1.809,0.318-3.443,0.957-4.908s1.527-2.703,2.666-3.715     c1.139-1.014,2.543-1.789,4.213-2.33s3.506-0.811,5.51-0.811c2.611,0,4.861,0.369,6.746,1.105s3.762,1.912,5.627,3.523     l-2.131,2.123c-1.512-1.357-3.039-2.359-4.578-3.008c-1.541-0.648-3.49-0.973-5.846-0.973c-3.102,0-5.535,0.797-7.301,2.389     c-1.768,1.592-2.65,3.754-2.65,6.486c0,2.496,0.736,4.363,2.209,5.602c0.805,0.648,1.791,1.213,2.957,1.695     c1.168,0.482,2.322,0.801,3.461,0.957l4.623,0.738c1.988,0.295,3.543,0.648,4.664,1.061c1.123,0.414,2.127,1.002,3.014,1.77     c1.219,1.002,2.15,2.217,2.789,3.641C658.15,835.709,658.47,837.275,658.47,838.986z"
           id="path165" /><path
           fill="#355F70"
           d="M692.466,850.514h-27.271v-42.986h6.574v37.119h20.697V850.514z"
           id="path167" /><path
           fill="#355F70"
           d="M731.56,850.514h-6.951l-2.947-8.639h-16.969l-2.945,8.639h-6.953l15.762-42.986h5.244L731.56,850.514z      M719.835,836.332l-6.51-19.074l-6.688,19.074H719.835z"
           id="path169" /><path
           fill="#355F70"
           d="M765.617,838.367c0,2.594-0.547,4.801-1.639,6.619s-2.627,3.193-4.604,4.127s-4.234,1.4-6.773,1.4     h-17.412v-42.986h16.764c2.598,0,4.885,0.477,6.861,1.43c1.977,0.955,3.492,2.32,4.545,4.1c1.053,1.777,1.58,3.857,1.58,6.234     c0,1.475-0.271,2.836-0.813,4.084s-1.252,2.299-2.137,3.154s-1.838,1.48-2.859,1.873c1.848,0.707,3.391,1.916,4.629,3.625     C764.998,833.738,765.617,835.852,765.617,838.367z M758.421,819.543c0-1.275-0.289-2.379-0.869-3.311s-1.396-1.637-2.447-2.117     s-2.285-0.721-3.699-0.721h-9.641v12.295h9.641c2.162,0,3.871-0.539,5.129-1.617S758.421,821.482,758.421,819.543z      M759.072,838.072c0-1.316-0.277-2.457-0.826-3.42c-0.551-0.963-1.361-1.721-2.432-2.27c-1.072-0.551-2.336-0.826-3.789-0.826     h-10.26v13.09h10.26c1.475,0,2.742-0.279,3.803-0.84s1.867-1.332,2.418-2.314C758.794,840.51,759.072,839.369,759.072,838.072z"
           id="path171" /></g></g><g
       id="g173"><circle
         fill="#355F70"
         cx="668.649"
         cy="810.846"
         r="5.245"
         id="circle175" /><circle
         fill="#FFFFFF"
         cx="668.648"
         cy="810.846"
         r="2.895"
         id="circle177" /></g></g></svg>